<?xml version="1.0" encoding="utf-8" standalone="no"?>
<!DOCTYPE svg PUBLIC "-//W3C//DTD SVG 1.1//EN"
  "http://www.w3.org/Graphics/SVG/1.1/DTD/svg11.dtd">
<svg xmlns:xlink="http://www.w3.org/1999/xlink" width="512.703437pt" height="339.534531pt" viewBox="0 0 512.703437 339.534531" xmlns="http://www.w3.org/2000/svg" version="1.1">
 <metadata>
  <rdf:RDF xmlns:dc="http://purl.org/dc/elements/1.1/" xmlns:cc="http://creativecommons.org/ns#" xmlns:rdf="http://www.w3.org/1999/02/22-rdf-syntax-ns#">
   <cc:Work>
    <dc:type rdf:resource="http://purl.org/dc/dcmitype/StillImage"/>
    <dc:date>2026-06-16T23:45:18.188444</dc:date>
    <dc:format>image/svg+xml</dc:format>
    <dc:creator>
     <cc:Agent>
      <dc:title>Matplotlib v3.10.8, https://matplotlib.org/</dc:title>
     </cc:Agent>
    </dc:creator>
   </cc:Work>
  </rdf:RDF>
 </metadata>
 <defs>
  <style type="text/css">*{stroke-linejoin: round; stroke-linecap: butt}</style>
 </defs>
 <g id="figure_1">
  <g id="patch_1">
   <path d="M 0 339.534531 
L 512.703437 339.534531 
L 512.703437 0 
L 0 0 
z
" style="fill: #ffffff"/>
  </g>
  <g id="axes_1">
   <g id="patch_2">
    <path d="M 42.214688 137.8475 
L 251.163437 137.8475 
L 251.163437 28.3875 
L 42.214688 28.3875 
z
" style="fill: #ffffff"/>
   </g>
   <g id="line2d_1">
    <path d="M 42.214688 137.8475 
L 251.163437 137.8475 
" clip-path="url(#pc327715f2d)" style="fill: none; stroke: #000000; stroke-width: 0.5; stroke-linecap: square"/>
   </g>
   <g id="patch_3">
    <path d="M 75.576253 137.522362 
Q 72.211684 137.684931 68.592904 137.766587 
Q 64.974124 137.8475 61.116085 137.8475 
Q 52.398115 137.8475 47.306401 137.363504 
Q 42.214688 136.879508 42.214688 136.051816 
Q 42.214688 135.214473 47.396123 134.734189 
Q 52.585035 134.253904 61.609555 134.253904 
Q 65.086276 134.253904 68.271401 134.319229 
Q 71.464002 134.383811 74.29024 134.511491 
L 74.29024 135.227835 
Q 71.374281 135.063781 68.488228 134.982868 
Q 65.602176 134.901212 62.701171 134.901212 
Q 57.332815 134.901212 54.424332 135.199626 
Q 51.51585 135.497299 51.51585 136.051816 
Q 51.51585 136.601136 54.319657 136.901036 
Q 57.123464 137.200193 62.282469 137.200193 
Q 63.688111 137.200193 64.891879 137.183119 
Q 66.095646 137.165303 67.052679 137.128187 
L 67.052679 136.455641 
L 61.557218 136.455641 
L 61.557218 135.856584 
L 75.576253 135.856584 
L 75.576253 137.522362 
z
" clip-path="url(#pc327715f2d)" style="fill: #ffa600"/>
   </g>
   <g id="patch_4">
    <path d="M 75.576253 133.926967 
Q 72.785615 134.089023 69.768029 134.170992 
Q 66.750442 134.253904 63.463878 134.253904 
Q 53.663025 134.253904 47.938856 133.639602 
Q 42.214688 133.025299 42.214688 131.974767 
Q 42.214688 130.920465 47.938856 130.307105 
Q 53.663025 129.692802 63.463878 129.692802 
Q 66.750442 129.692802 69.768029 129.775714 
Q 72.785615 129.857684 75.576253 130.019739 
L 75.576253 130.928945 
Q 72.760399 130.714127 70.0286 130.614256 
Q 67.296801 130.514385 64.279215 130.514385 
Q 58.866051 130.514385 55.764409 130.903506 
Q 52.671172 131.291685 52.671172 131.974767 
Q 52.671172 132.655022 55.764409 133.044143 
Q 58.866051 133.432322 64.279215 133.432322 
Q 67.296801 133.432322 70.0286 133.332451 
Q 72.760399 133.231637 75.576253 133.01682 
L 75.576253 133.926967 
z
" clip-path="url(#pc327715f2d)" style="fill: #0000ff"/>
   </g>
   <g id="patch_5">
    <path d="M 65.324273 128.484234 
L 52.493951 128.484234 
L 50.468111 129.692802 
L 42.214688 129.692802 
L 54.001395 123.058472 
L 63.789546 123.058472 
L 75.576253 129.692802 
L 67.32965 129.692802 
L 65.324273 128.484234 
z
M 54.540254 127.252916 
L 63.257507 127.252916 
L 58.905702 124.613971 
L 54.540254 127.252916 
z
" clip-path="url(#pc327715f2d)" style="fill: #008000"/>
   </g>
   <g id="patch_6">
    <path d="M 42.214688 91.960048 
L 75.576253 91.960048 
L 75.576253 98.025107 
L 63.573848 98.025107 
L 63.573848 123.058472 
L 54.240368 123.058472 
L 54.240368 98.025107 
L 42.214688 98.025107 
L 42.214688 91.960048 
z
" clip-path="url(#pc327715f2d)" style="fill: #ff0000"/>
   </g>
   <g id="patch_7">
    <path d="M 110.69369 137.776602 
Q 107.903052 137.811745 104.885465 137.82952 
Q 101.867879 137.8475 98.581315 137.8475 
Q 88.780462 137.8475 83.056293 137.714286 
Q 77.332124 137.581071 77.332124 137.353258 
Q 77.332124 137.124628 83.056293 136.991618 
Q 88.780462 136.858404 98.581315 136.858404 
Q 101.867879 136.858404 104.885465 136.876383 
Q 107.903052 136.894159 110.69369 136.929301 
L 110.69369 137.126467 
Q 107.877836 137.079883 105.146037 137.058225 
Q 102.414238 137.036568 99.396652 137.036568 
Q 93.983488 137.036568 90.881846 137.12095 
Q 87.788609 137.205129 87.788609 137.353258 
Q 87.788609 137.500775 90.881846 137.585158 
Q 93.983488 137.669336 99.396652 137.669336 
Q 102.414238 137.669336 105.146037 137.647678 
Q 107.877836 137.625817 110.69369 137.579232 
L 110.69369 137.776602 
z
" clip-path="url(#pc327715f2d)" style="fill: #0000ff"/>
   </g>
   <g id="patch_8">
    <path d="M 100.44171 136.377917 
L 87.611388 136.377917 
L 85.585548 136.858404 
L 77.332124 136.858404 
L 89.118832 134.220813 
L 98.906982 134.220813 
L 110.69369 136.858404 
L 102.447087 136.858404 
L 100.44171 136.377917 
z
M 89.657691 135.888385 
L 98.374944 135.888385 
L 94.023139 134.839228 
L 89.657691 135.888385 
z
" clip-path="url(#pc327715f2d)" style="fill: #008000"/>
   </g>
   <g id="patch_9">
    <path d="M 110.69369 133.594379 
Q 107.329121 133.907596 103.710341 134.06492 
Q 100.091561 134.220813 96.233522 134.220813 
Q 87.515552 134.220813 82.423838 133.288313 
Q 77.332124 132.355812 77.332124 130.761121 
Q 77.332124 129.147838 82.51356 128.222488 
Q 87.702472 127.297139 96.726992 127.297139 
Q 100.203713 127.297139 103.388838 127.422998 
Q 106.581439 127.547426 109.407677 127.793423 
L 109.407677 129.173582 
Q 106.491717 128.857504 103.605665 128.70161 
Q 100.719613 128.544287 97.818608 128.544287 
Q 92.450252 128.544287 89.541769 129.119233 
Q 86.633287 129.69275 86.633287 130.761121 
Q 86.633287 131.819481 89.437094 132.397288 
Q 92.240901 132.973665 97.399906 132.973665 
Q 98.805548 132.973665 100.009316 132.94077 
Q 101.213083 132.906445 102.170116 132.834934 
L 102.170116 131.539159 
L 96.674655 131.539159 
L 96.674655 130.384974 
L 110.69369 130.384974 
L 110.69369 133.594379 
z
" clip-path="url(#pc327715f2d)" style="fill: #ffa600"/>
   </g>
   <g id="patch_10">
    <path d="M 77.332124 28.3875 
L 110.69369 28.3875 
L 110.69369 47.677635 
L 98.691285 47.677635 
L 98.691285 127.297139 
L 89.357805 127.297139 
L 89.357805 47.677635 
L 77.332124 47.677635 
L 77.332124 28.3875 
z
" clip-path="url(#pc327715f2d)" style="fill: #ff0000"/>
   </g>
   <g id="patch_11">
    <path d="M 112.449561 134.746264 
L 145.811127 134.746264 
L 145.811127 135.351092 
L 133.808722 135.351092 
L 133.808722 137.8475 
L 124.475242 137.8475 
L 124.475242 135.351092 
L 112.449561 135.351092 
L 112.449561 134.746264 
z
" clip-path="url(#pc327715f2d)" style="fill: #ff0000"/>
   </g>
   <g id="patch_12">
    <path d="M 135.559147 134.07241 
L 122.728825 134.07241 
L 120.702985 134.746264 
L 112.449561 134.746264 
L 124.236269 131.0472 
L 134.024419 131.0472 
L 145.811127 134.746264 
L 137.564524 134.746264 
L 135.559147 134.07241 
z
M 124.775128 133.385871 
L 133.492381 133.385871 
L 129.140576 131.91449 
L 124.775128 133.385871 
z
" clip-path="url(#pc327715f2d)" style="fill: #008000"/>
   </g>
   <g id="patch_13">
    <path d="M 145.811127 130.757949 
Q 143.020489 130.901324 140.002902 130.973845 
Q 136.985316 131.0472 133.698752 131.0472 
Q 123.897899 131.0472 118.17373 130.503708 
Q 112.449561 129.960216 112.449561 129.030778 
Q 112.449561 128.098006 118.17373 127.555348 
Q 123.897899 127.011857 133.698752 127.011857 
Q 136.985316 127.011857 140.002902 127.085211 
Q 143.020489 127.157732 145.811127 127.301108 
L 145.811127 128.105509 
Q 142.995273 127.915453 140.263474 127.827094 
Q 137.531675 127.738735 134.514089 127.738735 
Q 129.100925 127.738735 125.999283 128.083002 
Q 122.906046 128.426436 122.906046 129.030778 
Q 122.906046 129.632621 125.999283 129.976888 
Q 129.100925 130.320321 134.514089 130.320321 
Q 137.531675 130.320321 140.263474 130.231962 
Q 142.995273 130.142769 145.811127 129.952714 
L 145.811127 130.757949 
z
" clip-path="url(#pc327715f2d)" style="fill: #0000ff"/>
   </g>
   <g id="patch_14">
    <path d="M 145.811127 125.747506 
Q 142.446558 126.379681 138.827778 126.697212 
Q 135.208998 127.011857 131.350959 127.011857 
Q 122.632989 127.011857 117.541275 125.129765 
Q 112.449561 123.247673 112.449561 120.029065 
Q 112.449561 116.77293 117.630997 114.905272 
Q 122.819909 113.037613 131.844429 113.037613 
Q 135.32115 113.037613 138.506275 113.291638 
Q 141.698876 113.542776 144.525114 114.039278 
L 144.525114 116.82489 
Q 141.609154 116.186941 138.723102 115.872297 
Q 135.83705 115.554766 132.936045 115.554766 
Q 127.567689 115.554766 124.659206 116.715197 
Q 121.750724 117.872742 121.750724 120.029065 
Q 121.750724 122.165181 124.554531 123.331385 
Q 127.358338 124.494703 132.517343 124.494703 
Q 133.922985 124.494703 135.126753 124.42831 
Q 136.33052 124.359031 137.287553 124.214698 
L 137.287553 121.599399 
L 131.792091 121.599399 
L 131.792091 119.269877 
L 145.811127 119.269877 
L 145.811127 125.747506 
z
" clip-path="url(#pc327715f2d)" style="fill: #ffa600"/>
   </g>
   <g id="patch_15">
    <path d="M 180.928564 137.723147 
Q 177.563995 137.785324 173.945215 137.816554 
Q 170.326435 137.8475 166.468396 137.8475 
Q 157.750426 137.8475 152.658712 137.662391 
Q 147.566998 137.477281 147.566998 137.160721 
Q 147.566998 136.840471 152.748434 136.656781 
Q 157.937346 136.473091 166.961866 136.473091 
Q 170.438587 136.473091 173.623712 136.498075 
Q 176.816313 136.522775 179.642551 136.571608 
L 179.642551 136.845581 
Q 176.726591 136.782837 173.840539 136.751891 
Q 170.954487 136.72066 168.053482 136.72066 
Q 162.685126 136.72066 159.776643 136.834792 
Q 156.868161 136.94864 156.868161 137.160721 
Q 156.868161 137.370815 159.671968 137.485515 
Q 162.475775 137.59993 167.63478 137.59993 
Q 169.040422 137.59993 170.24419 137.5934 
Q 171.447957 137.586587 172.40499 137.572391 
L 172.40499 137.315168 
L 166.909528 137.315168 
L 166.909528 137.086053 
L 180.928564 137.086053 
L 180.928564 137.723147 
z
" clip-path="url(#pc327715f2d)" style="fill: #ffa600"/>
   </g>
   <g id="patch_16">
    <path d="M 147.566998 134.340994 
L 180.928564 134.340994 
L 180.928564 134.756813 
L 168.926159 134.756813 
L 168.926159 136.473091 
L 159.592679 136.473091 
L 159.592679 134.756813 
L 147.566998 134.756813 
L 147.566998 134.340994 
z
" clip-path="url(#pc327715f2d)" style="fill: #ff0000"/>
   </g>
   <g id="patch_17">
    <path d="M 180.928564 134.109859 
Q 178.137926 134.224428 175.120339 134.282378 
Q 172.102753 134.340994 168.816189 134.340994 
Q 159.015336 134.340994 153.291167 133.906699 
Q 147.566998 133.472404 147.566998 132.729706 
Q 147.566998 131.984343 153.291167 131.550714 
Q 159.015336 131.116419 168.816189 131.116419 
Q 172.102753 131.116419 175.120339 131.175036 
Q 178.137926 131.232986 180.928564 131.347555 
L 180.928564 131.990338 
Q 178.11271 131.838468 175.380911 131.767862 
Q 172.649112 131.697256 169.631526 131.697256 
Q 164.218362 131.697256 161.11672 131.972354 
Q 158.023483 132.246786 158.023483 132.729706 
Q 158.023483 133.210628 161.11672 133.485726 
Q 164.218362 133.760158 169.631526 133.760158 
Q 172.649112 133.760158 175.380911 133.689552 
Q 178.11271 133.618279 180.928564 133.466409 
L 180.928564 134.109859 
z
" clip-path="url(#pc327715f2d)" style="fill: #0000ff"/>
   </g>
   <g id="patch_18">
    <path d="M 170.676584 130.211219 
L 157.846262 130.211219 
L 155.820422 131.116419 
L 147.566998 131.116419 
L 159.353706 126.147401 
L 169.141856 126.147401 
L 180.928564 131.116419 
L 172.681961 131.116419 
L 170.676584 130.211219 
z
M 159.892565 129.288979 
L 168.609818 129.288979 
L 164.258013 127.312447 
L 159.892565 129.288979 
z
" clip-path="url(#pc327715f2d)" style="fill: #008000"/>
   </g>
   <g id="patch_19">
    <path d="M 216.046001 137.748756 
Q 212.681432 137.798128 209.062652 137.822927 
Q 205.443872 137.8475 201.585833 137.8475 
Q 192.867862 137.8475 187.776149 137.700511 
Q 182.684435 137.553522 182.684435 137.302152 
Q 182.684435 137.047852 187.865871 136.90199 
Q 193.054783 136.756128 202.079303 136.756128 
Q 205.556024 136.756128 208.741149 136.775967 
Q 211.93375 136.795581 214.759988 136.834357 
L 214.759988 137.05191 
Q 211.844028 137.002087 208.957976 136.977514 
Q 206.071924 136.952715 203.170919 136.952715 
Q 197.802563 136.952715 194.89408 137.043343 
Q 191.985598 137.133746 191.985598 137.302152 
Q 191.985598 137.46898 194.789405 137.56006 
Q 197.593212 137.650913 202.752217 137.650913 
Q 204.157859 137.650913 205.361627 137.645728 
Q 206.565394 137.640317 207.522427 137.629045 
L 207.522427 137.424794 
L 202.026965 137.424794 
L 202.026965 137.242861 
L 216.046001 137.242861 
L 216.046001 137.748756 
z
" clip-path="url(#pc327715f2d)" style="fill: #ffa600"/>
   </g>
   <g id="patch_20">
    <path d="M 182.684435 134.401883 
L 216.046001 134.401883 
L 216.046001 134.861027 
L 204.043596 134.861027 
L 204.043596 136.756128 
L 194.710116 136.756128 
L 194.710116 134.861027 
L 182.684435 134.861027 
L 182.684435 134.401883 
z
" clip-path="url(#pc327715f2d)" style="fill: #ff0000"/>
   </g>
   <g id="patch_21">
    <path d="M 205.794021 133.899168 
L 192.963699 133.899168 
L 190.937859 134.401883 
L 182.684435 134.401883 
L 194.471143 131.642272 
L 204.259293 131.642272 
L 216.046001 134.401883 
L 207.799398 134.401883 
L 205.794021 133.899168 
z
M 195.010002 133.38699 
L 203.727255 133.38699 
L 199.375449 132.289296 
L 195.010002 133.38699 
z
" clip-path="url(#pc327715f2d)" style="fill: #008000"/>
   </g>
   <g id="patch_22">
    <path d="M 216.046001 131.345002 
Q 213.255363 131.492352 210.237776 131.566884 
Q 207.22019 131.642272 203.933626 131.642272 
Q 194.132773 131.642272 188.408604 131.083713 
Q 182.684435 130.525155 182.684435 129.569951 
Q 182.684435 128.61132 188.408604 128.053618 
Q 194.132773 127.495059 203.933626 127.495059 
Q 207.22019 127.495059 210.237776 127.570448 
Q 213.255363 127.644979 216.046001 127.792329 
L 216.046001 128.61903 
Q 213.230147 128.423706 210.498348 128.332897 
Q 207.766549 128.242089 204.748963 128.242089 
Q 199.335799 128.242089 196.234156 128.5959 
Q 193.14092 128.948854 193.14092 129.569951 
Q 193.14092 130.188477 196.234156 130.542288 
Q 199.335799 130.895243 204.748963 130.895243 
Q 207.766549 130.895243 210.498348 130.804434 
Q 213.230147 130.712769 216.046001 130.517444 
L 216.046001 131.345002 
z
" clip-path="url(#pc327715f2d)" style="fill: #0000ff"/>
   </g>
   <g id="patch_23">
    <path d="M 251.163437 137.761329 
Q 248.3728 137.804042 245.355213 137.825647 
Q 242.337627 137.8475 239.051063 137.8475 
Q 229.25021 137.8475 223.526041 137.685587 
Q 217.801872 137.523675 217.801872 137.246785 
Q 217.801872 136.968901 223.526041 136.807237 
Q 229.25021 136.645324 239.051063 136.645324 
Q 242.337627 136.645324 245.355213 136.667177 
Q 248.3728 136.688782 251.163437 136.731495 
L 251.163437 136.971136 
Q 248.347584 136.914516 245.615785 136.888193 
Q 242.883986 136.86187 239.8664 136.86187 
Q 234.453236 136.86187 231.351593 136.964431 
Q 228.258357 137.066744 228.258357 137.246785 
Q 228.258357 137.42608 231.351593 137.528642 
Q 234.453236 137.630954 239.8664 137.630954 
Q 242.883986 137.630954 245.615785 137.604631 
Q 248.347584 137.57806 251.163437 137.52144 
L 251.163437 137.761329 
z
" clip-path="url(#pc327715f2d)" style="fill: #0000ff"/>
   </g>
   <g id="patch_24">
    <path d="M 251.163437 136.486756 
Q 247.798869 136.56604 244.180089 136.605863 
Q 240.561309 136.645324 236.70327 136.645324 
Q 227.985299 136.645324 222.893586 136.409283 
Q 217.801872 136.173242 217.801872 135.769582 
Q 217.801872 135.361216 222.983308 135.126985 
Q 228.17222 134.892754 237.19674 134.892754 
Q 240.673461 134.892754 243.858586 134.924613 
Q 247.051187 134.956109 249.877425 135.018377 
L 249.877425 135.367733 
Q 246.961465 135.287725 244.075413 135.248264 
Q 241.189361 135.208441 238.288356 135.208441 
Q 232.92 135.208441 230.011517 135.353976 
Q 227.103035 135.499148 227.103035 135.769582 
Q 227.103035 136.037482 229.906842 136.18374 
Q 232.710649 136.329637 237.869654 136.329637 
Q 239.275296 136.329637 240.479064 136.32131 
Q 241.682831 136.312622 242.639864 136.29452 
L 242.639864 135.966525 
L 237.144402 135.966525 
L 237.144402 135.674369 
L 251.163437 135.674369 
L 251.163437 136.486756 
z
" clip-path="url(#pc327715f2d)" style="fill: #ffa600"/>
   </g>
   <g id="patch_25">
    <path d="M 217.801872 131.966977 
L 251.163437 131.966977 
L 251.163437 132.537585 
L 239.161033 132.537585 
L 239.161033 134.892754 
L 229.827553 134.892754 
L 229.827553 132.537585 
L 217.801872 132.537585 
L 217.801872 131.966977 
z
" clip-path="url(#pc327715f2d)" style="fill: #ff0000"/>
   </g>
   <g id="patch_26">
    <path d="M 240.911458 131.286232 
L 228.081136 131.286232 
L 226.055296 131.966977 
L 217.801872 131.966977 
L 229.588579 128.230092 
L 239.37673 128.230092 
L 251.163437 131.966977 
L 242.916835 131.966977 
L 240.911458 131.286232 
z
M 230.127439 130.592674 
L 238.844692 130.592674 
L 234.492886 129.10625 
L 230.127439 130.592674 
z
" clip-path="url(#pc327715f2d)" style="fill: #008000"/>
   </g>
   <g id="matplotlib.axis_1">
    <g id="xtick_1">
     <g id="line2d_2">
      <defs>
       <path id="m400b9e3d0b" d="M 0 0 
L 0 3.5 
" style="stroke: #000000; stroke-width: 0.8"/>
      </defs>
      <g>
       <use xlink:href="#m400b9e3d0b" x="58.89547" y="137.8475" style="stroke: #000000; stroke-width: 0.8"/>
      </g>
     </g>
     <g id="text_1">
      <text style="font-size: 8px; font-family: 'Arial'; text-anchor: middle" x="58.89547" y="150.57375" transform="rotate(-0 58.89547 150.57375)">1</text>
     </g>
    </g>
    <g id="xtick_2">
     <g id="line2d_3">
      <g>
       <use xlink:href="#m400b9e3d0b" x="94.012907" y="137.8475" style="stroke: #000000; stroke-width: 0.8"/>
      </g>
     </g>
     <g id="text_2">
      <text style="font-size: 8px; font-family: 'Arial'; text-anchor: middle" x="94.012907" y="150.57375" transform="rotate(-0 94.012907 150.57375)">2</text>
     </g>
    </g>
    <g id="xtick_3">
     <g id="line2d_4">
      <g>
       <use xlink:href="#m400b9e3d0b" x="129.130344" y="137.8475" style="stroke: #000000; stroke-width: 0.8"/>
      </g>
     </g>
     <g id="text_3">
      <text style="font-size: 8px; font-family: 'Arial'; text-anchor: middle" x="129.130344" y="150.57375" transform="rotate(-0 129.130344 150.57375)">3</text>
     </g>
    </g>
    <g id="xtick_4">
     <g id="line2d_5">
      <g>
       <use xlink:href="#m400b9e3d0b" x="164.247781" y="137.8475" style="stroke: #000000; stroke-width: 0.8"/>
      </g>
     </g>
     <g id="text_4">
      <text style="font-size: 8px; font-family: 'Arial'; text-anchor: middle" x="164.247781" y="150.57375" transform="rotate(-0 164.247781 150.57375)">4</text>
     </g>
    </g>
    <g id="xtick_5">
     <g id="line2d_6">
      <g>
       <use xlink:href="#m400b9e3d0b" x="199.365218" y="137.8475" style="stroke: #000000; stroke-width: 0.8"/>
      </g>
     </g>
     <g id="text_5">
      <text style="font-size: 8px; font-family: 'Arial'; text-anchor: middle" x="199.365218" y="150.57375" transform="rotate(-0 199.365218 150.57375)">5</text>
     </g>
    </g>
    <g id="xtick_6">
     <g id="line2d_7">
      <g>
       <use xlink:href="#m400b9e3d0b" x="234.482655" y="137.8475" style="stroke: #000000; stroke-width: 0.8"/>
      </g>
     </g>
     <g id="text_6">
      <text style="font-size: 8px; font-family: 'Arial'; text-anchor: middle" x="234.482655" y="150.57375" transform="rotate(-0 234.482655 150.57375)">6</text>
     </g>
    </g>
    <g id="text_7">
     <text style="font-size: 9px; font-family: 'Arial'; text-anchor: middle" x="146.689062" y="162.605781" transform="rotate(-0 146.689062 162.605781)">Position</text>
    </g>
   </g>
   <g id="matplotlib.axis_2">
    <g id="ytick_1">
     <g id="line2d_8">
      <defs>
       <path id="m96ecd90eab" d="M 0 0 
L -3.5 0 
" style="stroke: #000000; stroke-width: 0.8"/>
      </defs>
      <g>
       <use xlink:href="#m96ecd90eab" x="42.214688" y="137.8475" style="stroke: #000000; stroke-width: 0.8"/>
      </g>
     </g>
     <g id="text_8">
      <text style="font-size: 8px; font-family: 'Arial'; text-anchor: end" x="35.214688" y="140.710625" transform="rotate(-0 35.214688 140.710625)">0.00</text>
     </g>
    </g>
    <g id="ytick_2">
     <g id="line2d_9">
      <g>
       <use xlink:href="#m96ecd90eab" x="42.214688" y="118.645049" style="stroke: #000000; stroke-width: 0.8"/>
      </g>
     </g>
     <g id="text_9">
      <text style="font-size: 8px; font-family: 'Arial'; text-anchor: end" x="35.214688" y="121.508174" transform="rotate(-0 35.214688 121.508174)">0.25</text>
     </g>
    </g>
    <g id="ytick_3">
     <g id="line2d_10">
      <g>
       <use xlink:href="#m96ecd90eab" x="42.214688" y="99.442599" style="stroke: #000000; stroke-width: 0.8"/>
      </g>
     </g>
     <g id="text_10">
      <text style="font-size: 8px; font-family: 'Arial'; text-anchor: end" x="35.214688" y="102.305724" transform="rotate(-0 35.214688 102.305724)">0.50</text>
     </g>
    </g>
    <g id="ytick_4">
     <g id="line2d_11">
      <g>
       <use xlink:href="#m96ecd90eab" x="42.214688" y="80.240148" style="stroke: #000000; stroke-width: 0.8"/>
      </g>
     </g>
     <g id="text_11">
      <text style="font-size: 8px; font-family: 'Arial'; text-anchor: end" x="35.214688" y="83.103273" transform="rotate(-0 35.214688 83.103273)">0.75</text>
     </g>
    </g>
    <g id="ytick_5">
     <g id="line2d_12">
      <g>
       <use xlink:href="#m96ecd90eab" x="42.214688" y="61.037697" style="stroke: #000000; stroke-width: 0.8"/>
      </g>
     </g>
     <g id="text_12">
      <text style="font-size: 8px; font-family: 'Arial'; text-anchor: end" x="35.214688" y="63.900822" transform="rotate(-0 35.214688 63.900822)">1.00</text>
     </g>
    </g>
    <g id="ytick_6">
     <g id="line2d_13">
      <g>
       <use xlink:href="#m96ecd90eab" x="42.214688" y="41.835247" style="stroke: #000000; stroke-width: 0.8"/>
      </g>
     </g>
     <g id="text_13">
      <text style="font-size: 8px; font-family: 'Arial'; text-anchor: end" x="35.214688" y="44.698372" transform="rotate(-0 35.214688 44.698372)">1.25</text>
     </g>
    </g>
    <g id="text_14">
     <text style="font-size: 9px; font-family: 'Arial'; text-anchor: middle" x="13.751719" y="83.1175" transform="rotate(-90 13.751719 83.1175)">Information (bits)</text>
    </g>
   </g>
   <g id="patch_27">
    <path d="M 42.214688 137.8475 
L 42.214688 28.3875 
" style="fill: none; stroke: #000000; stroke-width: 0.8; stroke-linejoin: miter; stroke-linecap: square"/>
   </g>
   <g id="patch_28">
    <path d="M 42.214688 137.8475 
L 251.163437 137.8475 
" style="fill: none; stroke: #000000; stroke-width: 0.8; stroke-linejoin: miter; stroke-linecap: square"/>
   </g>
   <g id="text_15">
    <text style="font-size: 10px; font-family: 'Arial'; text-anchor: middle" x="146.689062" y="14.3875" transform="rotate(-0 146.689062 14.3875)">RegulonDB sigma70 -35</text>
   </g>
  </g>
  <g id="axes_2">
   <g id="patch_29">
    <path d="M 296.554687 137.8475 
L 505.503437 137.8475 
L 505.503437 28.3875 
L 296.554687 28.3875 
z
" style="fill: #ffffff"/>
   </g>
   <g id="line2d_14">
    <path d="M 296.554687 137.8475 
L 505.503437 137.8475 
" clip-path="url(#p058bb4cc5d)" style="fill: none; stroke: #000000; stroke-width: 0.5; stroke-linecap: square"/>
   </g>
   <g id="patch_30">
    <path d="M 329.916253 137.517394 
Q 326.551684 137.682447 322.932904 137.76535 
Q 319.314124 137.8475 315.456085 137.8475 
Q 306.738115 137.8475 301.646401 137.356109 
Q 296.554687 136.864719 296.554687 136.02438 
Q 296.554687 135.174244 301.736123 134.686622 
Q 306.925035 134.198999 315.949555 134.198999 
Q 319.426276 134.198999 322.611401 134.265322 
Q 325.804002 134.330891 328.63024 134.460522 
L 328.63024 135.18781 
Q 325.714281 135.02125 322.828228 134.9391 
Q 319.942176 134.856197 317.041171 134.856197 
Q 311.672815 134.856197 308.764332 135.159171 
Q 305.85585 135.461391 305.85585 136.02438 
Q 305.85585 136.582094 308.659657 136.886575 
Q 311.463464 137.190303 316.622469 137.190303 
Q 318.028111 137.190303 319.231879 137.172968 
Q 320.435646 137.15488 321.392679 137.117197 
L 321.392679 136.434375 
L 315.897218 136.434375 
L 315.897218 135.826166 
L 329.916253 135.826166 
L 329.916253 137.517394 
z
" clip-path="url(#p058bb4cc5d)" style="fill: #ffa600"/>
   </g>
   <g id="patch_31">
    <path d="M 319.664273 133.391932 
L 306.833951 133.391932 
L 304.808111 134.198999 
L 296.554687 134.198999 
L 308.341395 129.768677 
L 318.129546 129.768677 
L 329.916253 134.198999 
L 321.66965 134.198999 
L 319.664273 133.391932 
z
M 308.880254 132.569674 
L 317.597507 132.569674 
L 313.245702 130.80742 
L 308.880254 132.569674 
z
" clip-path="url(#p058bb4cc5d)" style="fill: #008000"/>
   </g>
   <g id="patch_32">
    <path d="M 329.916253 129.413754 
Q 327.125615 129.589681 324.108029 129.678668 
Q 321.090442 129.768677 317.803878 129.768677 
Q 308.003025 129.768677 302.278856 129.10179 
Q 296.554687 128.434902 296.554687 127.294443 
Q 296.554687 126.149892 302.278856 125.484028 
Q 308.003025 124.81714 317.803878 124.81714 
Q 321.090442 124.81714 324.108029 124.90715 
Q 327.125615 124.996136 329.916253 125.172064 
L 329.916253 126.159098 
Q 327.100399 125.925892 324.3686 125.817471 
Q 321.636801 125.709051 318.619215 125.709051 
Q 313.206051 125.709051 310.104409 126.131481 
Q 307.011172 126.552889 307.011172 127.294443 
Q 307.011172 128.032929 310.104409 128.455359 
Q 313.206051 128.876766 318.619215 128.876766 
Q 321.636801 128.876766 324.3686 128.768346 
Q 327.100399 128.658903 329.916253 128.425697 
L 329.916253 129.413754 
z
" clip-path="url(#p058bb4cc5d)" style="fill: #0000ff"/>
   </g>
   <g id="patch_33">
    <path d="M 296.554687 78.081584 
L 329.916253 78.081584 
L 329.916253 87.196319 
L 317.913848 87.196319 
L 317.913848 124.81714 
L 308.580368 124.81714 
L 308.580368 87.196319 
L 296.554687 87.196319 
L 296.554687 78.081584 
z
" clip-path="url(#p058bb4cc5d)" style="fill: #ff0000"/>
   </g>
   <g id="patch_34">
    <path d="M 365.03369 137.767671 
Q 362.243052 137.807241 359.225465 137.827255 
Q 356.207879 137.8475 352.921315 137.8475 
Q 343.120462 137.8475 337.396293 137.697505 
Q 331.672124 137.547509 331.672124 137.290999 
Q 331.672124 137.033569 337.396293 136.883803 
Q 343.120462 136.733808 352.921315 136.733808 
Q 356.207879 136.733808 359.225465 136.754053 
Q 362.243052 136.774068 365.03369 136.813637 
L 365.03369 137.035639 
Q 362.217836 136.983187 359.486037 136.958801 
Q 356.754238 136.934415 353.736652 136.934415 
Q 348.323488 136.934415 345.221846 137.029428 
Q 342.128609 137.12421 342.128609 137.290999 
Q 342.128609 137.457098 345.221846 137.552111 
Q 348.323488 137.646893 353.736652 137.646893 
Q 356.754238 137.646893 359.486037 137.622507 
Q 362.217836 137.597891 365.03369 137.545439 
L 365.03369 137.767671 
z
" clip-path="url(#p058bb4cc5d)" style="fill: #0000ff"/>
   </g>
   <g id="patch_35">
    <path d="M 365.03369 136.56107 
Q 361.669121 136.647439 358.050341 136.690821 
Q 354.431561 136.733808 350.573522 136.733808 
Q 341.855552 136.733808 336.763838 136.476673 
Q 331.672124 136.219539 331.672124 135.779807 
Q 331.672124 135.334948 336.85356 135.079785 
Q 342.042472 134.824622 351.066992 134.824622 
Q 354.543713 134.824622 357.728838 134.859327 
Q 360.921439 134.893638 363.747677 134.961471 
L 363.747677 135.342047 
Q 360.831717 135.254889 357.945665 135.211902 
Q 355.059613 135.16852 352.158608 135.16852 
Q 346.790252 135.16852 343.881769 135.32706 
Q 340.973287 135.485206 340.973287 135.779807 
Q 340.973287 136.071647 343.777094 136.230976 
Q 346.580901 136.38991 351.739906 136.38991 
Q 353.145548 136.38991 354.349316 136.380839 
Q 355.553083 136.371374 356.510116 136.351655 
L 356.510116 135.994349 
L 351.014655 135.994349 
L 351.014655 135.676085 
L 365.03369 135.676085 
L 365.03369 136.56107 
z
" clip-path="url(#p058bb4cc5d)" style="fill: #ffa600"/>
   </g>
   <g id="patch_36">
    <path d="M 331.672124 132.597238 
L 365.03369 132.597238 
L 365.03369 133.03164 
L 353.031285 133.03164 
L 353.031285 134.824622 
L 343.697805 134.824622 
L 343.697805 133.03164 
L 331.672124 133.03164 
L 331.672124 132.597238 
z
" clip-path="url(#p058bb4cc5d)" style="fill: #ff0000"/>
   </g>
   <g id="patch_37">
    <path d="M 354.78171 113.613467 
L 341.951388 113.613467 
L 339.925548 132.597238 
L 331.672124 132.597238 
L 343.458832 28.3875 
L 353.246982 28.3875 
L 365.03369 132.597238 
L 356.787087 132.597238 
L 354.78171 113.613467 
z
M 343.997691 94.272354 
L 352.714944 94.272354 
L 348.363139 52.820731 
L 343.997691 94.272354 
z
" clip-path="url(#p058bb4cc5d)" style="fill: #008000"/>
   </g>
   <g id="patch_38">
    <path d="M 400.151127 137.706189 
Q 397.360489 137.776234 394.342902 137.811663 
Q 391.325316 137.8475 388.038752 137.8475 
Q 378.237899 137.8475 372.51373 137.581981 
Q 366.789561 137.316463 366.789561 136.862394 
Q 366.789561 136.406695 372.51373 136.141584 
Q 378.237899 135.876066 388.038752 135.876066 
Q 391.325316 135.876066 394.342902 135.911902 
Q 397.360489 135.947332 400.151127 136.017377 
L 400.151127 136.410361 
Q 397.335273 136.317511 394.603474 136.274343 
Q 391.871675 136.231176 388.854089 136.231176 
Q 383.440925 136.231176 380.339283 136.399365 
Q 377.246046 136.567147 377.246046 136.862394 
Q 377.246046 137.156419 380.339283 137.324608 
Q 383.440925 137.492389 388.854089 137.492389 
Q 391.871675 137.492389 394.603474 137.449222 
Q 397.335273 137.405648 400.151127 137.312798 
L 400.151127 137.706189 
z
" clip-path="url(#p058bb4cc5d)" style="fill: #0000ff"/>
   </g>
   <g id="patch_39">
    <path d="M 400.151127 135.690024 
Q 396.786558 135.783045 393.167778 135.829768 
Q 389.548998 135.876066 385.690959 135.876066 
Q 376.972989 135.876066 371.881275 135.599127 
Q 366.789561 135.322188 366.789561 134.848589 
Q 366.789561 134.369468 371.970997 134.094653 
Q 377.159909 133.819838 386.184429 133.819838 
Q 389.66115 133.819838 392.846275 133.857217 
Q 396.038876 133.89417 398.865114 133.967227 
L 398.865114 134.377114 
Q 395.949154 134.283243 393.063102 134.236945 
Q 390.17705 134.190223 387.276045 134.190223 
Q 381.907689 134.190223 378.999206 134.360973 
Q 376.090724 134.531299 376.090724 134.848589 
Q 376.090724 135.162906 378.894531 135.334506 
Q 381.698338 135.505681 386.857343 135.505681 
Q 388.262985 135.505681 389.466753 135.495912 
Q 390.67052 135.485718 391.627553 135.46448 
L 391.627553 135.079655 
L 386.132091 135.079655 
L 386.132091 134.736879 
L 400.151127 134.736879 
L 400.151127 135.690024 
z
" clip-path="url(#p058bb4cc5d)" style="fill: #ffa600"/>
   </g>
   <g id="patch_40">
    <path d="M 389.899147 133.205835 
L 377.068825 133.205835 
L 375.042985 133.819838 
L 366.789561 133.819838 
L 378.576269 130.449321 
L 388.364419 130.449321 
L 400.151127 133.819838 
L 391.904524 133.819838 
L 389.899147 133.205835 
z
M 379.115128 132.580274 
L 387.832381 132.580274 
L 383.480576 131.23958 
L 379.115128 132.580274 
z
" clip-path="url(#p058bb4cc5d)" style="fill: #008000"/>
   </g>
   <g id="patch_41">
    <path d="M 366.789561 123.263125 
L 400.151127 123.263125 
L 400.151127 124.664634 
L 388.148722 124.664634 
L 388.148722 130.449321 
L 378.815242 130.449321 
L 378.815242 124.664634 
L 366.789561 124.664634 
L 366.789561 123.263125 
z
" clip-path="url(#p058bb4cc5d)" style="fill: #ff0000"/>
   </g>
   <g id="patch_42">
    <path d="M 435.268564 137.708371 
Q 432.477926 137.777334 429.460339 137.812216 
Q 426.442753 137.8475 423.156189 137.8475 
Q 413.355336 137.8475 407.631167 137.586081 
Q 401.906998 137.324662 401.906998 136.877604 
Q 401.906998 136.428941 407.631167 136.167923 
Q 413.355336 135.906505 423.156189 135.906505 
Q 426.442753 135.906505 429.460339 135.941788 
Q 432.477926 135.976671 435.268564 136.045634 
L 435.268564 136.43255 
Q 432.45271 136.341134 429.720911 136.298633 
Q 426.989112 136.256132 423.971526 136.256132 
Q 418.558362 136.256132 415.45672 136.421724 
Q 412.363483 136.586915 412.363483 136.877604 
Q 412.363483 137.167089 415.45672 137.332681 
Q 418.558362 137.497872 423.971526 137.497872 
Q 426.989112 137.497872 429.720911 137.455372 
Q 432.45271 137.41247 435.268564 137.321054 
L 435.268564 137.708371 
z
" clip-path="url(#p058bb4cc5d)" style="fill: #0000ff"/>
   </g>
   <g id="patch_43">
    <path d="M 435.268564 135.724969 
Q 431.903995 135.815737 428.285215 135.861328 
Q 424.666435 135.906505 420.808396 135.906505 
Q 412.090426 135.906505 406.998712 135.636274 
Q 401.906998 135.366043 401.906998 134.903915 
Q 401.906998 134.436399 407.088434 134.168241 
Q 412.277346 133.900082 421.301866 133.900082 
Q 424.778587 133.900082 427.963712 133.936555 
Q 431.156313 133.972613 433.982551 134.043901 
L 433.982551 134.44386 
Q 431.066591 134.352263 428.180539 134.307086 
Q 425.294487 134.261495 422.393482 134.261495 
Q 417.025126 134.261495 414.116643 134.42811 
Q 411.208161 134.59431 411.208161 134.903915 
Q 411.208161 135.210619 414.011968 135.378062 
Q 416.815775 135.545092 421.97478 135.545092 
Q 423.380422 135.545092 424.58419 135.535559 
Q 425.787957 135.525612 426.74499 135.504888 
L 426.74499 135.129384 
L 421.249528 135.129384 
L 421.249528 134.794911 
L 435.268564 134.794911 
L 435.268564 135.724969 
z
" clip-path="url(#p058bb4cc5d)" style="fill: #ffa600"/>
   </g>
   <g id="patch_44">
    <path d="M 401.906998 130.170754 
L 435.268564 130.170754 
L 435.268564 130.898077 
L 423.266159 130.898077 
L 423.266159 133.900082 
L 413.932679 133.900082 
L 413.932679 130.898077 
L 401.906998 130.898077 
L 401.906998 130.170754 
z
" clip-path="url(#p058bb4cc5d)" style="fill: #ff0000"/>
   </g>
   <g id="patch_45">
    <path d="M 425.016584 128.835856 
L 412.186262 128.835856 
L 410.160422 130.170754 
L 401.906998 130.170754 
L 413.693706 122.842951 
L 423.481856 122.842951 
L 435.268564 130.170754 
L 427.021961 130.170754 
L 425.016584 128.835856 
z
M 414.232565 127.475831 
L 422.949818 127.475831 
L 418.598013 124.561042 
L 414.232565 127.475831 
z
" clip-path="url(#p058bb4cc5d)" style="fill: #008000"/>
   </g>
   <g id="patch_46">
    <path d="M 470.386001 137.68644 
Q 467.021432 137.76697 463.402652 137.807419 
Q 459.783872 137.8475 455.925833 137.8475 
Q 447.207862 137.8475 442.116149 137.607749 
Q 437.024435 137.367998 437.024435 136.957994 
Q 437.024435 136.54321 442.205871 136.305298 
Q 447.394783 136.067386 456.419303 136.067386 
Q 459.896024 136.067386 463.081149 136.099745 
Q 466.27375 136.131736 469.099988 136.194983 
L 469.099988 136.549829 
Q 466.184028 136.468564 463.297976 136.428483 
Q 460.411924 136.388034 457.510919 136.388034 
Q 452.142563 136.388034 449.23408 136.535856 
Q 446.325598 136.68331 446.325598 136.957994 
Q 446.325598 137.230104 449.129405 137.378662 
Q 451.933212 137.526851 457.092217 137.526851 
Q 458.497859 137.526851 459.701627 137.518394 
Q 460.905394 137.509569 461.862427 137.491183 
L 461.862427 137.158032 
L 456.366965 137.158032 
L 456.366965 136.861285 
L 470.386001 136.861285 
L 470.386001 137.68644 
z
" clip-path="url(#p058bb4cc5d)" style="fill: #ffa600"/>
   </g>
   <g id="patch_47">
    <path d="M 437.024435 134.062415 
L 470.386001 134.062415 
L 470.386001 134.45344 
L 458.383596 134.45344 
L 458.383596 136.067386 
L 449.050116 136.067386 
L 449.050116 134.45344 
L 437.024435 134.45344 
L 437.024435 134.062415 
z
" clip-path="url(#p058bb4cc5d)" style="fill: #ff0000"/>
   </g>
   <g id="patch_48">
    <path d="M 470.386001 133.852886 
Q 467.595363 133.956745 464.577776 134.009278 
Q 461.56019 134.062415 458.273626 134.062415 
Q 448.472773 134.062415 442.748604 133.668718 
Q 437.024435 133.275022 437.024435 132.601753 
Q 437.024435 131.926068 442.748604 131.532976 
Q 448.472773 131.139279 458.273626 131.139279 
Q 461.56019 131.139279 464.577776 131.192416 
Q 467.595363 131.244949 470.386001 131.348808 
L 470.386001 131.931503 
Q 467.570147 131.79383 464.838348 131.729824 
Q 462.106549 131.665818 459.088963 131.665818 
Q 453.675799 131.665818 450.574156 131.915199 
Q 447.48092 132.163977 447.48092 132.601753 
Q 447.48092 133.037717 450.574156 133.287098 
Q 453.675799 133.535876 459.088963 133.535876 
Q 462.106549 133.535876 464.838348 133.47187 
Q 467.570147 133.40726 470.386001 133.269587 
L 470.386001 133.852886 
z
" clip-path="url(#p058bb4cc5d)" style="fill: #0000ff"/>
   </g>
   <g id="patch_49">
    <path d="M 460.134021 130.012828 
L 447.303699 130.012828 
L 445.277859 131.139279 
L 437.024435 131.139279 
L 448.811143 124.955724 
L 458.599293 124.955724 
L 470.386001 131.139279 
L 462.139398 131.139279 
L 460.134021 130.012828 
z
M 449.350002 128.865173 
L 458.067255 128.865173 
L 453.715449 126.405533 
L 449.350002 128.865173 
z
" clip-path="url(#p058bb4cc5d)" style="fill: #008000"/>
   </g>
   <g id="patch_50">
    <path d="M 505.503438 137.691495 
Q 502.138869 137.769497 498.520089 137.808677 
Q 494.901309 137.8475 491.04327 137.8475 
Q 482.325299 137.8475 477.233586 137.615273 
Q 472.141872 137.383046 472.141872 136.985909 
Q 472.141872 136.584142 477.323308 136.353696 
Q 482.51222 136.12325 491.53674 136.12325 
Q 495.013461 136.12325 498.198586 136.154594 
Q 501.391187 136.185581 504.217425 136.246843 
L 504.217425 136.590553 
Q 501.301465 136.511838 498.415413 136.473015 
Q 495.529361 136.433836 492.628356 136.433836 
Q 487.26 136.433836 484.351517 136.577019 
Q 481.443035 136.719845 481.443035 136.985909 
Q 481.443035 137.24948 484.246842 137.393375 
Q 487.050649 137.536914 492.209654 137.536914 
Q 493.615296 137.536914 494.819064 137.528722 
Q 496.022831 137.520174 496.979864 137.502365 
L 496.979864 137.179669 
L 491.484402 137.179669 
L 491.484402 136.892235 
L 505.503438 136.892235 
L 505.503438 137.691495 
z
" clip-path="url(#p058bb4cc5d)" style="fill: #ffa600"/>
   </g>
   <g id="patch_51">
    <path d="M 505.503438 135.867824 
Q 502.7128 135.994433 499.695213 136.058473 
Q 496.677627 136.12325 493.391063 136.12325 
Q 483.59021 136.12325 477.866041 135.643314 
Q 472.141872 135.163378 472.141872 134.342629 
Q 472.141872 133.518936 477.866041 133.039736 
Q 483.59021 132.5598 493.391063 132.5598 
Q 496.677627 132.5598 499.695213 132.624577 
Q 502.7128 132.688617 505.503438 132.815226 
L 505.503438 133.52556 
Q 502.687584 133.35773 499.955785 133.279704 
Q 497.223986 133.201677 494.2064 133.201677 
Q 488.793236 133.201677 485.691593 133.505686 
Q 482.598357 133.808958 482.598357 134.342629 
Q 482.598357 134.874092 485.691593 135.1781 
Q 488.793236 135.481373 494.2064 135.481373 
Q 497.223986 135.481373 499.955785 135.403346 
Q 502.687584 135.324584 505.503438 135.156753 
L 505.503438 135.867824 
z
" clip-path="url(#p058bb4cc5d)" style="fill: #0000ff"/>
   </g>
   <g id="patch_52">
    <path d="M 495.251458 131.408083 
L 482.421136 131.408083 
L 480.395296 132.5598 
L 472.141872 132.5598 
L 483.928579 126.23755 
L 493.71673 126.23755 
L 505.503438 132.5598 
L 497.256835 132.5598 
L 495.251458 131.408083 
z
M 484.467439 130.234686 
L 493.184692 130.234686 
L 488.832886 127.719878 
L 484.467439 130.234686 
z
" clip-path="url(#p058bb4cc5d)" style="fill: #008000"/>
   </g>
   <g id="patch_53">
    <path d="M 472.141872 58.761899 
L 505.503438 58.761899 
L 505.503438 71.921531 
L 493.501033 71.921531 
L 493.501033 126.23755 
L 484.167553 126.23755 
L 484.167553 71.921531 
L 472.141872 71.921531 
L 472.141872 58.761899 
z
" clip-path="url(#p058bb4cc5d)" style="fill: #ff0000"/>
   </g>
   <g id="matplotlib.axis_3">
    <g id="xtick_7">
     <g id="line2d_15">
      <g>
       <use xlink:href="#m400b9e3d0b" x="313.23547" y="137.8475" style="stroke: #000000; stroke-width: 0.8"/>
      </g>
     </g>
     <g id="text_16">
      <text style="font-size: 8px; font-family: 'Arial'; text-anchor: middle" x="313.23547" y="150.57375" transform="rotate(-0 313.23547 150.57375)">1</text>
     </g>
    </g>
    <g id="xtick_8">
     <g id="line2d_16">
      <g>
       <use xlink:href="#m400b9e3d0b" x="348.352907" y="137.8475" style="stroke: #000000; stroke-width: 0.8"/>
      </g>
     </g>
     <g id="text_17">
      <text style="font-size: 8px; font-family: 'Arial'; text-anchor: middle" x="348.352907" y="150.57375" transform="rotate(-0 348.352907 150.57375)">2</text>
     </g>
    </g>
    <g id="xtick_9">
     <g id="line2d_17">
      <g>
       <use xlink:href="#m400b9e3d0b" x="383.470344" y="137.8475" style="stroke: #000000; stroke-width: 0.8"/>
      </g>
     </g>
     <g id="text_18">
      <text style="font-size: 8px; font-family: 'Arial'; text-anchor: middle" x="383.470344" y="150.57375" transform="rotate(-0 383.470344 150.57375)">3</text>
     </g>
    </g>
    <g id="xtick_10">
     <g id="line2d_18">
      <g>
       <use xlink:href="#m400b9e3d0b" x="418.587781" y="137.8475" style="stroke: #000000; stroke-width: 0.8"/>
      </g>
     </g>
     <g id="text_19">
      <text style="font-size: 8px; font-family: 'Arial'; text-anchor: middle" x="418.587781" y="150.57375" transform="rotate(-0 418.587781 150.57375)">4</text>
     </g>
    </g>
    <g id="xtick_11">
     <g id="line2d_19">
      <g>
       <use xlink:href="#m400b9e3d0b" x="453.705218" y="137.8475" style="stroke: #000000; stroke-width: 0.8"/>
      </g>
     </g>
     <g id="text_20">
      <text style="font-size: 8px; font-family: 'Arial'; text-anchor: middle" x="453.705218" y="150.57375" transform="rotate(-0 453.705218 150.57375)">5</text>
     </g>
    </g>
    <g id="xtick_12">
     <g id="line2d_20">
      <g>
       <use xlink:href="#m400b9e3d0b" x="488.822655" y="137.8475" style="stroke: #000000; stroke-width: 0.8"/>
      </g>
     </g>
     <g id="text_21">
      <text style="font-size: 8px; font-family: 'Arial'; text-anchor: middle" x="488.822655" y="150.57375" transform="rotate(-0 488.822655 150.57375)">6</text>
     </g>
    </g>
    <g id="text_22">
     <text style="font-size: 9px; font-family: 'Arial'; text-anchor: middle" x="401.029062" y="162.605781" transform="rotate(-0 401.029062 162.605781)">Position</text>
    </g>
   </g>
   <g id="matplotlib.axis_4">
    <g id="ytick_7">
     <g id="line2d_21">
      <g>
       <use xlink:href="#m96ecd90eab" x="296.554687" y="137.8475" style="stroke: #000000; stroke-width: 0.8"/>
      </g>
     </g>
     <g id="text_23">
      <text style="font-size: 8px; font-family: 'Arial'; text-anchor: end" x="289.554687" y="140.710625" transform="rotate(-0 289.554687 140.710625)">0.0</text>
     </g>
    </g>
    <g id="ytick_8">
     <g id="line2d_22">
      <g>
       <use xlink:href="#m96ecd90eab" x="296.554687" y="104.656132" style="stroke: #000000; stroke-width: 0.8"/>
      </g>
     </g>
     <g id="text_24">
      <text style="font-size: 8px; font-family: 'Arial'; text-anchor: end" x="289.554687" y="107.519257" transform="rotate(-0 289.554687 107.519257)">0.5</text>
     </g>
    </g>
    <g id="ytick_9">
     <g id="line2d_23">
      <g>
       <use xlink:href="#m96ecd90eab" x="296.554687" y="71.464764" style="stroke: #000000; stroke-width: 0.8"/>
      </g>
     </g>
     <g id="text_25">
      <text style="font-size: 8px; font-family: 'Arial'; text-anchor: end" x="289.554687" y="74.327889" transform="rotate(-0 289.554687 74.327889)">1.0</text>
     </g>
    </g>
    <g id="ytick_10">
     <g id="line2d_24">
      <g>
       <use xlink:href="#m96ecd90eab" x="296.554687" y="38.273396" style="stroke: #000000; stroke-width: 0.8"/>
      </g>
     </g>
     <g id="text_26">
      <text style="font-size: 8px; font-family: 'Arial'; text-anchor: end" x="289.554687" y="41.136521" transform="rotate(-0 289.554687 41.136521)">1.5</text>
     </g>
    </g>
    <g id="text_27">
     <text style="font-size: 9px; font-family: 'Arial'; text-anchor: middle" x="272.540469" y="83.1175" transform="rotate(-90 272.540469 83.1175)">Information (bits)</text>
    </g>
   </g>
   <g id="patch_54">
    <path d="M 296.554687 137.8475 
L 296.554687 28.3875 
" style="fill: none; stroke: #000000; stroke-width: 0.8; stroke-linejoin: miter; stroke-linecap: square"/>
   </g>
   <g id="patch_55">
    <path d="M 296.554687 137.8475 
L 505.503438 137.8475 
" style="fill: none; stroke: #000000; stroke-width: 0.8; stroke-linejoin: miter; stroke-linecap: square"/>
   </g>
   <g id="text_28">
    <text style="font-size: 10px; font-family: 'Arial'; text-anchor: middle" x="401.029062" y="14.3875" transform="rotate(-0 401.029062 14.3875)">RegulonDB sigma70 -10</text>
   </g>
  </g>
  <g id="axes_3">
   <g id="patch_56">
    <path d="M 42.214688 305.7875 
L 251.163437 305.7875 
L 251.163437 196.3275 
L 42.214688 196.3275 
z
" style="fill: #ffffff"/>
   </g>
   <g id="line2d_25">
    <path d="M 42.214688 305.7875 
L 251.163437 305.7875 
" clip-path="url(#p15e5f6c30d)" style="fill: none; stroke: #000000; stroke-width: 0.5; stroke-linecap: square"/>
   </g>
   <g id="patch_57">
    <path d="M 75.576253 305.683869 
Q 72.211684 305.735685 68.592904 305.761711 
Q 64.974124 305.7875 61.116085 305.7875 
Q 52.398115 305.7875 47.306401 305.633237 
Q 42.214688 305.478974 42.214688 305.215165 
Q 42.214688 304.94828 47.396123 304.7952 
Q 52.585035 304.64212 61.609555 304.64212 
Q 65.086276 304.64212 68.271401 304.662941 
Q 71.464002 304.683525 74.29024 304.72422 
L 74.29024 304.952539 
Q 71.374281 304.900251 68.488228 304.874461 
Q 65.602176 304.848435 62.701171 304.848435 
Q 57.332815 304.848435 54.424332 304.943548 
Q 51.51585 305.038425 51.51585 305.215165 
Q 51.51585 305.390249 54.319657 305.485835 
Q 57.123464 305.581185 62.282469 305.581185 
Q 63.688111 305.581185 64.891879 305.575743 
Q 66.095646 305.570065 67.052679 305.558235 
L 67.052679 305.343875 
L 61.557218 305.343875 
L 61.557218 305.152939 
L 75.576253 305.152939 
L 75.576253 305.683869 
z
" clip-path="url(#p15e5f6c30d)" style="fill: #ffa600"/>
   </g>
   <g id="patch_58">
    <path d="M 75.576253 304.27267 
Q 72.785615 304.455798 69.768029 304.548427 
Q 66.750442 304.64212 63.463878 304.64212 
Q 53.663025 304.64212 47.938856 303.947936 
Q 42.214688 303.253753 42.214688 302.066613 
Q 42.214688 300.875215 47.938856 300.182096 
Q 53.663025 299.487912 63.463878 299.487912 
Q 66.750442 299.487912 69.768029 299.581605 
Q 72.785615 299.674234 75.576253 299.857362 
L 75.576253 300.884797 
Q 72.760399 300.642046 70.0286 300.529187 
Q 67.296801 300.416329 64.279215 300.416329 
Q 58.866051 300.416329 55.764409 300.85605 
Q 52.671172 301.294706 52.671172 302.066613 
Q 52.671172 302.835326 55.764409 303.275047 
Q 58.866051 303.713703 64.279215 303.713703 
Q 67.296801 303.713703 70.0286 303.600845 
Q 72.760399 303.486922 75.576253 303.24417 
L 75.576253 304.27267 
z
" clip-path="url(#p15e5f6c30d)" style="fill: #0000ff"/>
   </g>
   <g id="patch_59">
    <path d="M 65.324273 298.027344 
L 52.493951 298.027344 
L 50.468111 299.487912 
L 42.214688 299.487912 
L 54.001395 291.470254 
L 63.789546 291.470254 
L 75.576253 299.487912 
L 67.32965 299.487912 
L 65.324273 298.027344 
z
M 54.540254 296.539283 
L 63.257507 296.539283 
L 58.905702 293.350091 
L 54.540254 296.539283 
z
" clip-path="url(#p15e5f6c30d)" style="fill: #008000"/>
   </g>
   <g id="patch_60">
    <path d="M 42.214688 235.346649 
L 75.576253 235.346649 
L 75.576253 246.292316 
L 63.573848 246.292316 
L 63.573848 291.470254 
L 54.240368 291.470254 
L 54.240368 246.292316 
L 42.214688 246.292316 
L 42.214688 235.346649 
z
" clip-path="url(#p15e5f6c30d)" style="fill: #ff0000"/>
   </g>
   <g id="patch_61">
    <path d="M 100.44171 305.625385 
L 87.611388 305.625385 
L 85.585548 305.7875 
L 77.332124 305.7875 
L 89.118832 304.897581 
L 98.906982 304.897581 
L 110.69369 305.7875 
L 102.447087 305.7875 
L 100.44171 305.625385 
z
M 89.657691 305.460217 
L 98.374944 305.460217 
L 94.023139 305.106233 
L 89.657691 305.460217 
z
" clip-path="url(#p15e5f6c30d)" style="fill: #008000"/>
   </g>
   <g id="patch_62">
    <path d="M 110.69369 304.770004 
Q 107.903052 304.833241 104.885465 304.865227 
Q 101.867879 304.897581 98.581315 304.897581 
Q 88.780462 304.897581 83.056293 304.657868 
Q 77.332124 304.418154 77.332124 304.008214 
Q 77.332124 303.596804 83.056293 303.357458 
Q 88.780462 303.117744 98.581315 303.117744 
Q 101.867879 303.117744 104.885465 303.150098 
Q 107.903052 303.182084 110.69369 303.245322 
L 110.69369 303.600113 
Q 107.877836 303.516286 105.146037 303.477314 
Q 102.414238 303.438343 99.396652 303.438343 
Q 93.983488 303.438343 90.881846 303.590186 
Q 87.788609 303.741661 87.788609 304.008214 
Q 87.788609 304.273664 90.881846 304.425507 
Q 93.983488 304.576983 99.396652 304.576983 
Q 102.414238 304.576983 105.146037 304.538011 
Q 107.877836 304.498671 110.69369 304.414845 
L 110.69369 304.770004 
z
" clip-path="url(#p15e5f6c30d)" style="fill: #0000ff"/>
   </g>
   <g id="patch_63">
    <path d="M 110.69369 302.715157 
Q 107.329121 302.916451 103.710341 303.017557 
Q 100.091561 303.117744 96.233522 303.117744 
Q 87.515552 303.117744 82.423838 302.51846 
Q 77.332124 301.919175 77.332124 300.894326 
Q 77.332124 299.857527 82.51356 299.262839 
Q 87.702472 298.66815 96.726992 298.66815 
Q 100.203713 298.66815 103.388838 298.749035 
Q 106.581439 298.829001 109.407677 298.987095 
L 109.407677 299.874072 
Q 106.491717 299.67094 103.605665 299.570753 
Q 100.719613 299.469647 97.818608 299.469647 
Q 92.450252 299.469647 89.541769 299.839144 
Q 86.633287 300.207723 86.633287 300.894326 
Q 86.633287 301.574495 89.437094 301.945831 
Q 92.240901 302.316247 97.399906 302.316247 
Q 98.805548 302.316247 100.009316 302.295107 
Q 101.213083 302.273047 102.170116 302.22709 
L 102.170116 301.394342 
L 96.674655 301.394342 
L 96.674655 300.65259 
L 110.69369 300.65259 
L 110.69369 302.715157 
z
" clip-path="url(#p15e5f6c30d)" style="fill: #ffa600"/>
   </g>
   <g id="patch_64">
    <path d="M 77.332124 196.3275 
L 110.69369 196.3275 
L 110.69369 216.286778 
L 98.691285 216.286778 
L 98.691285 298.66815 
L 89.357805 298.66815 
L 89.357805 216.286778 
L 77.332124 216.286778 
L 77.332124 196.3275 
z
" clip-path="url(#p15e5f6c30d)" style="fill: #ff0000"/>
   </g>
   <g id="patch_65">
    <path d="M 135.559147 305.152897 
L 122.728825 305.152897 
L 120.702985 305.7875 
L 112.449561 305.7875 
L 124.236269 302.303904 
L 134.024419 302.303904 
L 145.811127 305.7875 
L 137.564524 305.7875 
L 135.559147 305.152897 
z
M 124.775128 304.506349 
L 133.492381 304.506349 
L 129.140576 303.120675 
L 124.775128 304.506349 
z
" clip-path="url(#p15e5f6c30d)" style="fill: #008000"/>
   </g>
   <g id="patch_66">
    <path d="M 145.811127 301.963401 
Q 143.020489 302.132181 140.002902 302.217552 
Q 136.985316 302.303904 133.698752 302.303904 
Q 123.897899 302.303904 118.17373 301.664112 
Q 112.449561 301.02432 112.449561 299.930197 
Q 112.449561 298.832149 118.17373 298.193338 
Q 123.897899 297.553546 133.698752 297.553546 
Q 136.985316 297.553546 140.002902 297.639898 
Q 143.020489 297.725269 145.811127 297.894049 
L 145.811127 298.84098 
Q 142.995273 298.617249 140.263474 298.513234 
Q 137.531675 298.409219 134.514089 298.409219 
Q 129.100925 298.409219 125.999283 298.814486 
Q 122.906046 299.218772 122.906046 299.930197 
Q 122.906046 300.638678 125.999283 301.043945 
Q 129.100925 301.448231 134.514089 301.448231 
Q 137.531675 301.448231 140.263474 301.344216 
Q 142.995273 301.239219 145.811127 301.015488 
L 145.811127 301.963401 
z
" clip-path="url(#p15e5f6c30d)" style="fill: #0000ff"/>
   </g>
   <g id="patch_67">
    <path d="M 112.449561 292.803188 
L 145.811127 292.803188 
L 145.811127 293.72964 
L 133.808722 293.72964 
L 133.808722 297.553546 
L 124.475242 297.553546 
L 124.475242 293.72964 
L 112.449561 293.72964 
L 112.449561 292.803188 
z
" clip-path="url(#p15e5f6c30d)" style="fill: #ff0000"/>
   </g>
   <g id="patch_68">
    <path d="M 145.811127 290.45362 
Q 142.446558 291.628404 138.827778 292.218478 
Q 135.208998 292.803188 131.350959 292.803188 
Q 122.632989 292.803188 117.541275 289.305657 
Q 112.449561 285.808127 112.449561 279.826922 
Q 112.449561 273.77598 117.630997 270.305271 
Q 122.819909 266.834563 131.844429 266.834563 
Q 135.32115 266.834563 138.506275 267.306622 
Q 141.698876 267.773317 144.525114 268.695978 
L 144.525114 273.872538 
Q 141.609154 272.687025 138.723102 272.102315 
Q 135.83705 271.512241 132.936045 271.512241 
Q 127.567689 271.512241 124.659206 273.668694 
Q 121.750724 275.819782 121.750724 279.826922 
Q 121.750724 283.796511 124.554531 285.963692 
Q 127.358338 288.125509 132.517343 288.125509 
Q 133.922985 288.125509 135.126753 288.00213 
Q 136.33052 287.873387 137.287553 287.605171 
L 137.287553 282.745106 
L 131.792091 282.745106 
L 131.792091 278.416108 
L 145.811127 278.416108 
L 145.811127 290.45362 
z
" clip-path="url(#p15e5f6c30d)" style="fill: #ffa600"/>
   </g>
   <g id="patch_69">
    <path d="M 147.566998 304.084588 
L 180.928564 304.084588 
L 180.928564 304.416703 
L 168.926159 304.416703 
L 168.926159 305.7875 
L 159.592679 305.7875 
L 159.592679 304.416703 
L 147.566998 304.416703 
L 147.566998 304.084588 
z
" clip-path="url(#p15e5f6c30d)" style="fill: #ff0000"/>
   </g>
   <g id="patch_70">
    <path d="M 180.928564 303.930513 
Q 177.563995 304.007551 173.945215 304.046245 
Q 170.326435 304.084588 166.468396 304.084588 
Q 157.750426 304.084588 152.658712 303.855235 
Q 147.566998 303.625882 147.566998 303.23366 
Q 147.566998 302.836865 152.748434 302.609271 
Q 157.937346 302.381676 166.961866 302.381676 
Q 170.438587 302.381676 173.623712 302.412632 
Q 176.816313 302.443236 179.642551 302.50374 
L 179.642551 302.843197 
Q 176.726591 302.765456 173.840539 302.727113 
Q 170.954487 302.688419 168.053482 302.688419 
Q 162.685126 302.688419 159.776643 302.829829 
Q 156.868161 302.970889 156.868161 303.23366 
Q 156.868161 303.493969 159.671968 303.636083 
Q 162.475775 303.777846 167.63478 303.777846 
Q 169.040422 303.777846 170.24419 303.769755 
Q 171.447957 303.761313 172.40499 303.743724 
L 172.40499 303.425022 
L 166.909528 303.425022 
L 166.909528 303.141145 
L 180.928564 303.141145 
L 180.928564 303.930513 
z
" clip-path="url(#p15e5f6c30d)" style="fill: #ffa600"/>
   </g>
   <g id="patch_71">
    <path d="M 180.928564 302.091775 
Q 178.137926 302.235472 175.120339 302.308157 
Q 172.102753 302.381676 168.816189 302.381676 
Q 159.015336 302.381676 153.291167 301.836963 
Q 147.566998 301.292249 147.566998 300.360722 
Q 147.566998 299.425853 153.291167 298.881974 
Q 159.015336 298.337261 168.816189 298.337261 
Q 172.102753 298.337261 175.120339 298.41078 
Q 178.137926 298.483464 180.928564 298.627162 
L 180.928564 299.433372 
Q 178.11271 299.242889 175.380911 299.154331 
Q 172.649112 299.065773 169.631526 299.065773 
Q 164.218362 299.065773 161.11672 299.410814 
Q 158.023483 299.75502 158.023483 300.360722 
Q 158.023483 300.963917 161.11672 301.308958 
Q 164.218362 301.653163 169.631526 301.653163 
Q 172.649112 301.653163 175.380911 301.564606 
Q 178.11271 301.475213 180.928564 301.28473 
L 180.928564 302.091775 
z
" clip-path="url(#p15e5f6c30d)" style="fill: #0000ff"/>
   </g>
   <g id="patch_72">
    <path d="M 170.676584 297.309665 
L 157.846262 297.309665 
L 155.820422 298.337261 
L 147.566998 298.337261 
L 159.353706 292.696365 
L 169.141856 292.696365 
L 180.928564 298.337261 
L 172.681961 298.337261 
L 170.676584 297.309665 
z
M 159.892565 296.262726 
L 168.609818 296.262726 
L 164.258013 294.018941 
L 159.892565 296.262726 
z
" clip-path="url(#p15e5f6c30d)" style="fill: #008000"/>
   </g>
   <g id="patch_73">
    <path d="M 216.046001 305.626279 
Q 212.681432 305.70689 209.062652 305.747379 
Q 205.443872 305.7875 201.585833 305.7875 
Q 192.867862 305.7875 187.776149 305.54751 
Q 182.684435 305.307519 182.684435 304.897106 
Q 182.684435 304.481908 187.865871 304.243758 
Q 193.054783 304.005609 202.079303 304.005609 
Q 205.556024 304.005609 208.741149 304.038 
Q 211.93375 304.070023 214.759988 304.133333 
L 214.759988 304.488534 
Q 211.844028 304.407187 208.957976 304.367066 
Q 206.071924 304.326577 203.170919 304.326577 
Q 197.802563 304.326577 194.89408 304.474547 
Q 191.985598 304.622148 191.985598 304.897106 
Q 191.985598 305.169488 194.789405 305.318194 
Q 197.593212 305.466531 202.752217 305.466531 
Q 204.157859 305.466531 205.361627 305.458065 
Q 206.565394 305.449231 207.522427 305.430827 
L 207.522427 305.097344 
L 202.026965 305.097344 
L 202.026965 304.8003 
L 216.046001 304.8003 
L 216.046001 305.626279 
z
" clip-path="url(#p15e5f6c30d)" style="fill: #ffa600"/>
   </g>
   <g id="patch_74">
    <path d="M 182.684435 301.675443 
L 216.046001 301.675443 
L 216.046001 302.12989 
L 204.043596 302.12989 
L 204.043596 304.005609 
L 194.710116 304.005609 
L 194.710116 302.12989 
L 182.684435 302.12989 
L 182.684435 301.675443 
z
" clip-path="url(#p15e5f6c30d)" style="fill: #ff0000"/>
   </g>
   <g id="patch_75">
    <path d="M 205.794021 300.826475 
L 192.963699 300.826475 
L 190.937859 301.675443 
L 182.684435 301.675443 
L 194.471143 297.015111 
L 204.259293 297.015111 
L 216.046001 301.675443 
L 207.799398 301.675443 
L 205.794021 300.826475 
z
M 195.010002 299.961527 
L 203.727255 299.961527 
L 199.375449 298.107782 
L 195.010002 299.961527 
z
" clip-path="url(#p15e5f6c30d)" style="fill: #008000"/>
   </g>
   <g id="patch_76">
    <path d="M 216.046001 296.435436 
Q 213.255363 296.722768 210.237776 296.868104 
Q 207.22019 297.015111 203.933626 297.015111 
Q 194.132773 297.015111 188.408604 295.925924 
Q 182.684435 294.836737 182.684435 292.974094 
Q 182.684435 291.104768 188.408604 290.017252 
Q 194.132773 288.928065 203.933626 288.928065 
Q 207.22019 288.928065 210.237776 289.075072 
Q 213.255363 289.220408 216.046001 289.50774 
L 216.046001 291.119803 
Q 213.230147 290.738922 210.498348 290.561845 
Q 207.766549 290.384769 204.748963 290.384769 
Q 199.335799 290.384769 196.234156 291.074699 
Q 193.14092 291.762958 193.14092 292.974094 
Q 193.14092 294.180218 196.234156 294.870148 
Q 199.335799 295.558407 204.748963 295.558407 
Q 207.766549 295.558407 210.498348 295.381331 
Q 213.230147 295.202584 216.046001 294.821702 
L 216.046001 296.435436 
z
" clip-path="url(#p15e5f6c30d)" style="fill: #0000ff"/>
   </g>
   <g id="patch_77">
    <path d="M 251.163437 305.715646 
Q 248.3728 305.751262 245.355213 305.769278 
Q 242.337627 305.7875 239.051063 305.7875 
Q 229.25021 305.7875 223.526041 305.652489 
Q 217.801872 305.517478 217.801872 305.286593 
Q 217.801872 305.05488 223.526041 304.920076 
Q 229.25021 304.785066 239.051063 304.785066 
Q 242.337627 304.785066 245.355213 304.803288 
Q 248.3728 304.821303 251.163437 304.85692 
L 251.163437 305.056744 
Q 248.347584 305.009531 245.615785 304.987582 
Q 242.883986 304.965632 239.8664 304.965632 
Q 234.453236 304.965632 231.351593 305.051153 
Q 228.258357 305.136466 228.258357 305.286593 
Q 228.258357 305.436099 231.351593 305.52162 
Q 234.453236 305.606933 239.8664 305.606933 
Q 242.883986 305.606933 245.615785 305.584984 
Q 248.347584 305.562827 251.163437 305.515615 
L 251.163437 305.715646 
z
" clip-path="url(#p15e5f6c30d)" style="fill: #0000ff"/>
   </g>
   <g id="patch_78">
    <path d="M 251.163437 304.662357 
Q 247.798869 304.723711 244.180089 304.754529 
Q 240.561309 304.785066 236.70327 304.785066 
Q 227.985299 304.785066 222.893586 304.602404 
Q 217.801872 304.419742 217.801872 304.107368 
Q 217.801872 303.791353 222.983308 303.610092 
Q 228.17222 303.428831 237.19674 303.428831 
Q 240.673461 303.428831 243.858586 303.453485 
Q 247.051187 303.477858 249.877425 303.526045 
L 249.877425 303.796395 
Q 246.961465 303.734481 244.075413 303.703944 
Q 241.189361 303.673127 238.288356 303.673127 
Q 232.92 303.673127 230.011517 303.785749 
Q 227.103035 303.898092 227.103035 304.107368 
Q 227.103035 304.314684 229.906842 304.427867 
Q 232.710649 304.54077 237.869654 304.54077 
Q 239.275296 304.54077 240.479064 304.534326 
Q 241.682831 304.527602 242.639864 304.513595 
L 242.639864 304.259773 
L 237.144402 304.259773 
L 237.144402 304.033687 
L 251.163437 304.033687 
L 251.163437 304.662357 
z
" clip-path="url(#p15e5f6c30d)" style="fill: #ffa600"/>
   </g>
   <g id="patch_79">
    <path d="M 217.801872 301.306029 
L 251.163437 301.306029 
L 251.163437 301.720034 
L 239.161033 301.720034 
L 239.161033 303.428831 
L 229.827553 303.428831 
L 229.827553 301.720034 
L 217.801872 301.720034 
L 217.801872 301.306029 
z
" clip-path="url(#p15e5f6c30d)" style="fill: #ff0000"/>
   </g>
   <g id="patch_80">
    <path d="M 240.911458 300.801159 
L 228.081136 300.801159 
L 226.055296 301.306029 
L 217.801872 301.306029 
L 229.588579 298.534592 
L 239.37673 298.534592 
L 251.163437 301.306029 
L 242.916835 301.306029 
L 240.911458 300.801159 
z
M 230.127439 300.286786 
L 238.844692 300.286786 
L 234.492886 299.184389 
L 230.127439 300.286786 
z
" clip-path="url(#p15e5f6c30d)" style="fill: #008000"/>
   </g>
   <g id="matplotlib.axis_5">
    <g id="xtick_13">
     <g id="line2d_26">
      <g>
       <use xlink:href="#m400b9e3d0b" x="58.89547" y="305.7875" style="stroke: #000000; stroke-width: 0.8"/>
      </g>
     </g>
     <g id="text_29">
      <text style="font-size: 8px; font-family: 'Arial'; text-anchor: middle" x="58.89547" y="318.51375" transform="rotate(-0 58.89547 318.51375)">1</text>
     </g>
    </g>
    <g id="xtick_14">
     <g id="line2d_27">
      <g>
       <use xlink:href="#m400b9e3d0b" x="94.012907" y="305.7875" style="stroke: #000000; stroke-width: 0.8"/>
      </g>
     </g>
     <g id="text_30">
      <text style="font-size: 8px; font-family: 'Arial'; text-anchor: middle" x="94.012907" y="318.51375" transform="rotate(-0 94.012907 318.51375)">2</text>
     </g>
    </g>
    <g id="xtick_15">
     <g id="line2d_28">
      <g>
       <use xlink:href="#m400b9e3d0b" x="129.130344" y="305.7875" style="stroke: #000000; stroke-width: 0.8"/>
      </g>
     </g>
     <g id="text_31">
      <text style="font-size: 8px; font-family: 'Arial'; text-anchor: middle" x="129.130344" y="318.51375" transform="rotate(-0 129.130344 318.51375)">3</text>
     </g>
    </g>
    <g id="xtick_16">
     <g id="line2d_29">
      <g>
       <use xlink:href="#m400b9e3d0b" x="164.247781" y="305.7875" style="stroke: #000000; stroke-width: 0.8"/>
      </g>
     </g>
     <g id="text_32">
      <text style="font-size: 8px; font-family: 'Arial'; text-anchor: middle" x="164.247781" y="318.51375" transform="rotate(-0 164.247781 318.51375)">4</text>
     </g>
    </g>
    <g id="xtick_17">
     <g id="line2d_30">
      <g>
       <use xlink:href="#m400b9e3d0b" x="199.365218" y="305.7875" style="stroke: #000000; stroke-width: 0.8"/>
      </g>
     </g>
     <g id="text_33">
      <text style="font-size: 8px; font-family: 'Arial'; text-anchor: middle" x="199.365218" y="318.51375" transform="rotate(-0 199.365218 318.51375)">5</text>
     </g>
    </g>
    <g id="xtick_18">
     <g id="line2d_31">
      <g>
       <use xlink:href="#m400b9e3d0b" x="234.482655" y="305.7875" style="stroke: #000000; stroke-width: 0.8"/>
      </g>
     </g>
     <g id="text_34">
      <text style="font-size: 8px; font-family: 'Arial'; text-anchor: middle" x="234.482655" y="318.51375" transform="rotate(-0 234.482655 318.51375)">6</text>
     </g>
    </g>
    <g id="text_35">
     <text style="font-size: 9px; font-family: 'Arial'; text-anchor: middle" x="146.689062" y="330.545781" transform="rotate(-0 146.689062 330.545781)">Position</text>
    </g>
   </g>
   <g id="matplotlib.axis_6">
    <g id="ytick_11">
     <g id="line2d_32">
      <g>
       <use xlink:href="#m96ecd90eab" x="42.214688" y="305.7875" style="stroke: #000000; stroke-width: 0.8"/>
      </g>
     </g>
     <g id="text_36">
      <text style="font-size: 8px; font-family: 'Arial'; text-anchor: end" x="35.214688" y="308.650625" transform="rotate(-0 35.214688 308.650625)">0.0</text>
     </g>
    </g>
    <g id="ytick_12">
     <g id="line2d_33">
      <g>
       <use xlink:href="#m96ecd90eab" x="42.214688" y="270.891796" style="stroke: #000000; stroke-width: 0.8"/>
      </g>
     </g>
     <g id="text_37">
      <text style="font-size: 8px; font-family: 'Arial'; text-anchor: end" x="35.214688" y="273.754921" transform="rotate(-0 35.214688 273.754921)">0.5</text>
     </g>
    </g>
    <g id="ytick_13">
     <g id="line2d_34">
      <g>
       <use xlink:href="#m96ecd90eab" x="42.214688" y="235.996092" style="stroke: #000000; stroke-width: 0.8"/>
      </g>
     </g>
     <g id="text_38">
      <text style="font-size: 8px; font-family: 'Arial'; text-anchor: end" x="35.214688" y="238.859217" transform="rotate(-0 35.214688 238.859217)">1.0</text>
     </g>
    </g>
    <g id="ytick_14">
     <g id="line2d_35">
      <g>
       <use xlink:href="#m96ecd90eab" x="42.214688" y="201.100388" style="stroke: #000000; stroke-width: 0.8"/>
      </g>
     </g>
     <g id="text_39">
      <text style="font-size: 8px; font-family: 'Arial'; text-anchor: end" x="35.214688" y="203.963513" transform="rotate(-0 35.214688 203.963513)">1.5</text>
     </g>
    </g>
    <g id="text_40">
     <text style="font-size: 9px; font-family: 'Arial'; text-anchor: middle" x="18.200469" y="251.0575" transform="rotate(-90 18.200469 251.0575)">Information (bits)</text>
    </g>
   </g>
   <g id="patch_81">
    <path d="M 42.214688 305.7875 
L 42.214688 196.3275 
" style="fill: none; stroke: #000000; stroke-width: 0.8; stroke-linejoin: miter; stroke-linecap: square"/>
   </g>
   <g id="patch_82">
    <path d="M 42.214688 305.7875 
L 251.163437 305.7875 
" style="fill: none; stroke: #000000; stroke-width: 0.8; stroke-linejoin: miter; stroke-linecap: square"/>
   </g>
   <g id="text_41">
    <text style="font-size: 10px; font-family: 'Arial'; text-anchor: middle" x="146.689062" y="182.3275" transform="rotate(-0 146.689062 182.3275)">Predicted passed -35</text>
   </g>
  </g>
  <g id="axes_4">
   <g id="patch_83">
    <path d="M 296.554687 305.7875 
L 505.503437 305.7875 
L 505.503437 196.3275 
L 296.554687 196.3275 
z
" style="fill: #ffffff"/>
   </g>
   <g id="line2d_36">
    <path d="M 296.554687 305.7875 
L 505.503437 305.7875 
" clip-path="url(#pb2a2fc6c6d)" style="fill: none; stroke: #000000; stroke-width: 0.5; stroke-linecap: square"/>
   </g>
   <g id="patch_84">
    <path d="M 319.664273 305.212539 
L 306.833951 305.212539 
L 304.808111 305.7875 
L 296.554687 305.7875 
L 308.341395 302.6313 
L 318.129546 302.6313 
L 329.916253 305.7875 
L 321.66965 305.7875 
L 319.664273 305.212539 
z
M 308.880254 304.626755 
L 317.597507 304.626755 
L 313.245702 303.37131 
L 308.880254 304.626755 
z
" clip-path="url(#pb2a2fc6c6d)" style="fill: #008000"/>
   </g>
   <g id="patch_85">
    <path d="M 329.916253 302.321939 
Q 326.551684 302.47662 322.932904 302.554313 
Q 319.314124 302.6313 315.456085 302.6313 
Q 306.738115 302.6313 301.646401 302.17079 
Q 296.554687 301.71028 296.554687 300.922752 
Q 296.554687 300.126041 301.736123 299.669063 
Q 306.925035 299.212084 315.949555 299.212084 
Q 319.426276 299.212084 322.611401 299.274239 
Q 325.804002 299.335687 328.63024 299.457172 
L 328.63024 300.138755 
Q 325.714281 299.982662 322.828228 299.905674 
Q 319.942176 299.827981 317.041171 299.827981 
Q 311.672815 299.827981 308.764332 300.111915 
Q 305.85585 300.395143 305.85585 300.922752 
Q 305.85585 301.445417 308.659657 301.730763 
Q 311.463464 302.015404 316.622469 302.015404 
Q 318.028111 302.015404 319.231879 301.999159 
Q 320.435646 301.982207 321.392679 301.946892 
L 321.392679 301.306981 
L 315.897218 301.306981 
L 315.897218 300.736994 
L 329.916253 300.736994 
L 329.916253 302.321939 
z
" clip-path="url(#pb2a2fc6c6d)" style="fill: #ffa600"/>
   </g>
   <g id="patch_86">
    <path d="M 329.916253 298.835027 
Q 327.125615 299.021926 324.108029 299.116462 
Q 321.090442 299.212084 317.803878 299.212084 
Q 308.003025 299.212084 302.278856 298.503607 
Q 296.554687 297.79513 296.554687 296.583548 
Q 296.554687 295.367619 302.278856 294.660229 
Q 308.003025 293.951752 317.803878 293.951752 
Q 321.090442 293.951752 324.108029 294.047374 
Q 327.125615 294.14191 329.916253 294.328809 
L 329.916253 295.377398 
Q 327.100399 295.129649 324.3686 295.014467 
Q 321.636801 294.899285 318.619215 294.899285 
Q 313.206051 294.899285 310.104409 295.34806 
Q 307.011172 295.795748 307.011172 296.583548 
Q 307.011172 297.368088 310.104409 297.816863 
Q 313.206051 298.264551 318.619215 298.264551 
Q 321.636801 298.264551 324.3686 298.149369 
Q 327.100399 298.0331 329.916253 297.785351 
L 329.916253 298.835027 
z
" clip-path="url(#pb2a2fc6c6d)" style="fill: #0000ff"/>
   </g>
   <g id="patch_87">
    <path d="M 296.554687 273.436455 
L 329.916253 273.436455 
L 329.916253 277.437509 
L 317.913848 277.437509 
L 317.913848 293.951752 
L 308.580368 293.951752 
L 308.580368 277.437509 
L 296.554687 277.437509 
L 296.554687 273.436455 
z
" clip-path="url(#pb2a2fc6c6d)" style="fill: #ff0000"/>
   </g>
   <g id="patch_88">
    <path d="M 365.03369 305.723711 
Q 362.243052 305.75533 359.225465 305.771323 
Q 356.207879 305.7875 352.921315 305.7875 
Q 343.120462 305.7875 337.396293 305.667643 
Q 331.672124 305.547786 331.672124 305.342816 
Q 331.672124 305.137111 337.396293 305.017438 
Q 343.120462 304.897581 352.921315 304.897581 
Q 356.207879 304.897581 359.225465 304.913758 
Q 362.243052 304.929751 365.03369 304.96137 
L 365.03369 305.138766 
Q 362.217836 305.096852 359.486037 305.077367 
Q 356.754238 305.057881 353.736652 305.057881 
Q 348.323488 305.057881 345.221846 305.133802 
Q 342.128609 305.20954 342.128609 305.342816 
Q 342.128609 305.475541 345.221846 305.551463 
Q 348.323488 305.627201 353.736652 305.627201 
Q 356.754238 305.627201 359.486037 305.607715 
Q 362.217836 305.588045 365.03369 305.546132 
L 365.03369 305.723711 
z
" clip-path="url(#pb2a2fc6c6d)" style="fill: #0000ff"/>
   </g>
   <g id="patch_89">
    <path d="M 365.03369 304.736547 
Q 361.669121 304.817064 358.050341 304.857506 
Q 354.431561 304.897581 350.573522 304.897581 
Q 341.855552 304.897581 336.763838 304.657868 
Q 331.672124 304.418154 331.672124 304.008214 
Q 331.672124 303.593495 336.85356 303.355619 
Q 342.042472 303.117744 351.066992 303.117744 
Q 354.543713 303.117744 357.728838 303.150098 
Q 360.921439 303.182084 363.747677 303.245322 
L 363.747677 303.600113 
Q 360.831717 303.51886 357.945665 303.478785 
Q 355.059613 303.438343 352.158608 303.438343 
Q 346.790252 303.438343 343.881769 303.586142 
Q 340.973287 303.733573 340.973287 304.008214 
Q 340.973287 304.280282 343.777094 304.428816 
Q 346.580901 304.576983 351.739906 304.576983 
Q 353.145548 304.576983 354.349316 304.568526 
Q 355.553083 304.559703 356.510116 304.54132 
L 356.510116 304.208221 
L 351.014655 304.208221 
L 351.014655 303.91152 
L 365.03369 303.91152 
L 365.03369 304.736547 
z
" clip-path="url(#pb2a2fc6c6d)" style="fill: #ffa600"/>
   </g>
   <g id="patch_90">
    <path d="M 331.672124 300.447988 
L 365.03369 300.447988 
L 365.03369 300.968665 
L 353.031285 300.968665 
L 353.031285 303.117744 
L 343.697805 303.117744 
L 343.697805 300.968665 
L 331.672124 300.968665 
L 331.672124 300.447988 
z
" clip-path="url(#pb2a2fc6c6d)" style="fill: #ff0000"/>
   </g>
   <g id="patch_91">
    <path d="M 354.78171 281.480475 
L 341.951388 281.480475 
L 339.925548 300.447988 
L 331.672124 300.447988 
L 343.458832 196.3275 
L 353.246982 196.3275 
L 365.03369 300.447988 
L 356.787087 300.447988 
L 354.78171 281.480475 
z
M 343.997691 262.155927 
L 352.714944 262.155927 
L 348.363139 220.739805 
L 343.997691 262.155927 
z
" clip-path="url(#pb2a2fc6c6d)" style="fill: #008000"/>
   </g>
   <g id="patch_92">
    <path d="M 400.151127 305.596963 
Q 396.786558 305.692232 393.167778 305.740083 
Q 389.548998 305.7875 385.690959 305.7875 
Q 376.972989 305.7875 371.881275 305.50387 
Q 366.789561 305.22024 366.789561 304.735198 
Q 366.789561 304.2445 371.970997 303.963046 
Q 377.159909 303.681591 386.184429 303.681591 
Q 389.66115 303.681591 392.846275 303.719872 
Q 396.038876 303.757718 398.865114 303.832541 
L 398.865114 304.252331 
Q 395.949154 304.156192 393.063102 304.108776 
Q 390.17705 304.060924 387.276045 304.060924 
Q 381.907689 304.060924 378.999206 304.2358 
Q 376.090724 304.410241 376.090724 304.735198 
Q 376.090724 305.057109 378.894531 305.232855 
Q 381.698338 305.408167 386.857343 305.408167 
Q 388.262985 305.408167 389.466753 305.398161 
Q 390.67052 305.387721 391.627553 305.36597 
L 391.627553 304.971846 
L 386.132091 304.971846 
L 386.132091 304.620789 
L 400.151127 304.620789 
L 400.151127 305.596963 
z
" clip-path="url(#pb2a2fc6c6d)" style="fill: #ffa600"/>
   </g>
   <g id="patch_93">
    <path d="M 400.151127 303.509076 
Q 397.360489 303.594587 394.342902 303.63784 
Q 391.325316 303.681591 388.038752 303.681591 
Q 378.237899 303.681591 372.51373 303.357442 
Q 366.789561 303.033293 366.789561 302.478959 
Q 366.789561 301.922637 372.51373 301.598986 
Q 378.237899 301.274837 388.038752 301.274837 
Q 391.325316 301.274837 394.342902 301.318587 
Q 397.360489 301.36184 400.151127 301.447352 
L 400.151127 301.927111 
Q 397.335273 301.813759 394.603474 301.76106 
Q 391.871675 301.708361 388.854089 301.708361 
Q 383.440925 301.708361 380.339283 301.913688 
Q 377.246046 302.118518 377.246046 302.478959 
Q 377.246046 302.837909 380.339283 303.043237 
Q 383.440925 303.248067 388.854089 303.248067 
Q 391.871675 303.248067 394.603474 303.195368 
Q 397.335273 303.142171 400.151127 303.028819 
L 400.151127 303.509076 
z
" clip-path="url(#pb2a2fc6c6d)" style="fill: #0000ff"/>
   </g>
   <g id="patch_94">
    <path d="M 389.899147 300.480172 
L 377.068825 300.480172 
L 375.042985 301.274837 
L 366.789561 301.274837 
L 378.576269 296.912596 
L 388.364419 296.912596 
L 400.151127 301.274837 
L 391.904524 301.274837 
L 389.899147 300.480172 
z
M 379.115128 299.670549 
L 387.832381 299.670549 
L 383.480576 297.935376 
L 379.115128 299.670549 
z
" clip-path="url(#pb2a2fc6c6d)" style="fill: #008000"/>
   </g>
   <g id="patch_95">
    <path d="M 366.789561 287.285581 
L 400.151127 287.285581 
L 400.151127 289.163117 
L 388.148722 289.163117 
L 388.148722 296.912596 
L 378.815242 296.912596 
L 378.815242 289.163117 
L 366.789561 289.163117 
L 366.789561 287.285581 
z
" clip-path="url(#pb2a2fc6c6d)" style="fill: #ff0000"/>
   </g>
   <g id="patch_96">
    <path d="M 435.268564 305.732221 
Q 432.477926 305.759622 429.460339 305.773481 
Q 426.442753 305.7875 423.156189 305.7875 
Q 413.355336 305.7875 407.631167 305.683633 
Q 401.906998 305.579766 401.906998 305.402141 
Q 401.906998 305.223878 407.631167 305.12017 
Q 413.355336 305.016303 423.156189 305.016303 
Q 426.442753 305.016303 429.460339 305.030322 
Q 432.477926 305.044182 435.268564 305.071582 
L 435.268564 305.225312 
Q 432.45271 305.18899 429.720911 305.172104 
Q 426.989112 305.155217 423.971526 305.155217 
Q 418.558362 305.155217 415.45672 305.22101 
Q 412.363483 305.286644 412.363483 305.402141 
Q 412.363483 305.517159 415.45672 305.582952 
Q 418.558362 305.648586 423.971526 305.648586 
Q 426.989112 305.648586 429.720911 305.631699 
Q 432.45271 305.614654 435.268564 305.578332 
L 435.268564 305.732221 
z
" clip-path="url(#pb2a2fc6c6d)" style="fill: #0000ff"/>
   </g>
   <g id="patch_97">
    <path d="M 401.906998 304.024765 
L 435.268564 304.024765 
L 435.268564 304.218142 
L 423.266159 304.218142 
L 423.266159 305.016303 
L 413.932679 305.016303 
L 413.932679 304.218142 
L 401.906998 304.218142 
L 401.906998 304.024765 
z
" clip-path="url(#pb2a2fc6c6d)" style="fill: #ff0000"/>
   </g>
   <g id="patch_98">
    <path d="M 435.268564 303.93173 
Q 431.903995 303.978247 428.285215 304.001612 
Q 424.666435 304.024765 420.808396 304.024765 
Q 412.090426 304.024765 406.998712 303.886275 
Q 401.906998 303.747786 401.906998 303.510952 
Q 401.906998 303.271357 407.088434 303.133929 
Q 412.277346 302.996502 421.301866 302.996502 
Q 424.778587 302.996502 427.963712 303.015194 
Q 431.156313 303.033673 433.982551 303.070207 
L 433.982551 303.27518 
Q 431.066591 303.228238 428.180539 303.205086 
Q 425.294487 303.181721 422.393482 303.181721 
Q 417.025126 303.181721 414.116643 303.267109 
Q 411.208161 303.352284 411.208161 303.510952 
Q 411.208161 303.668133 414.011968 303.753946 
Q 416.815775 303.839546 421.97478 303.839546 
Q 423.380422 303.839546 424.58419 303.83466 
Q 425.787957 303.829562 426.74499 303.818942 
L 426.74499 303.626501 
L 421.249528 303.626501 
L 421.249528 303.455089 
L 435.268564 303.455089 
L 435.268564 303.93173 
z
" clip-path="url(#pb2a2fc6c6d)" style="fill: #ffa600"/>
   </g>
   <g id="patch_99">
    <path d="M 425.016584 302.682076 
L 412.186262 302.682076 
L 410.160422 302.996502 
L 401.906998 302.996502 
L 413.693706 301.27049 
L 423.481856 301.27049 
L 435.268564 302.996502 
L 427.021961 302.996502 
L 425.016584 302.682076 
z
M 414.232565 302.361732 
L 422.949818 302.361732 
L 418.598013 301.675175 
L 414.232565 302.361732 
z
" clip-path="url(#pb2a2fc6c6d)" style="fill: #008000"/>
   </g>
   <g id="patch_100">
    <path d="M 470.386001 305.729321 
Q 467.021432 305.75841 463.402652 305.773022 
Q 459.783872 305.7875 455.925833 305.7875 
Q 447.207862 305.7875 442.116149 305.700895 
Q 437.024435 305.61429 437.024435 305.466185 
Q 437.024435 305.316353 442.205871 305.230412 
Q 447.394783 305.144471 456.419303 305.144471 
Q 459.896024 305.144471 463.081149 305.15616 
Q 466.27375 305.167716 469.099988 305.190563 
L 469.099988 305.318744 
Q 466.184028 305.289388 463.297976 305.27491 
Q 460.411924 305.260299 457.510919 305.260299 
Q 452.142563 305.260299 449.23408 305.313696 
Q 446.325598 305.366961 446.325598 305.466185 
Q 446.325598 305.564479 449.129405 305.618142 
Q 451.933212 305.671672 457.092217 305.671672 
Q 458.497859 305.671672 459.701627 305.668617 
Q 460.905394 305.665429 461.862427 305.658788 
L 461.862427 305.538444 
L 456.366965 305.538444 
L 456.366965 305.431251 
L 470.386001 305.431251 
L 470.386001 305.729321 
z
" clip-path="url(#pb2a2fc6c6d)" style="fill: #ffa600"/>
   </g>
   <g id="patch_101">
    <path d="M 470.386001 305.096375 
Q 467.595363 305.120215 464.577776 305.132274 
Q 461.56019 305.144471 458.273626 305.144471 
Q 448.472773 305.144471 442.748604 305.054101 
Q 437.024435 304.96373 437.024435 304.809186 
Q 437.024435 304.654087 442.748604 304.563855 
Q 448.472773 304.473485 458.273626 304.473485 
Q 461.56019 304.473485 464.577776 304.485682 
Q 467.595363 304.497741 470.386001 304.521581 
L 470.386001 304.655334 
Q 467.570147 304.623732 464.838348 304.60904 
Q 462.106549 304.594348 459.088963 304.594348 
Q 453.675799 304.594348 450.574156 304.651592 
Q 447.48092 304.708697 447.48092 304.809186 
Q 447.48092 304.909259 450.574156 304.966502 
Q 453.675799 305.023608 459.088963 305.023608 
Q 462.106549 305.023608 464.838348 305.008916 
Q 467.570147 304.994085 470.386001 304.962483 
L 470.386001 305.096375 
z
" clip-path="url(#pb2a2fc6c6d)" style="fill: #0000ff"/>
   </g>
   <g id="patch_102">
    <path d="M 437.024435 303.578836 
L 470.386001 303.578836 
L 470.386001 303.753317 
L 458.383596 303.753317 
L 458.383596 304.473485 
L 449.050116 304.473485 
L 449.050116 303.753317 
L 437.024435 303.753317 
L 437.024435 303.578836 
z
" clip-path="url(#pb2a2fc6c6d)" style="fill: #ff0000"/>
   </g>
   <g id="patch_103">
    <path d="M 460.134021 303.354742 
L 447.303699 303.354742 
L 445.277859 303.578836 
L 437.024435 303.578836 
L 448.811143 302.348694 
L 458.599293 302.348694 
L 470.386001 303.578836 
L 462.139398 303.578836 
L 460.134021 303.354742 
z
M 449.350002 303.126431 
L 458.067255 303.126431 
L 453.715449 302.637116 
L 449.350002 303.126431 
z
" clip-path="url(#pb2a2fc6c6d)" style="fill: #008000"/>
   </g>
   <g id="patch_104">
    <path d="M 505.503438 305.630195 
Q 502.138869 305.708848 498.520089 305.748353 
Q 494.901309 305.7875 491.04327 305.7875 
Q 482.325299 305.7875 477.233586 305.553339 
Q 472.141872 305.319178 472.141872 304.918734 
Q 472.141872 304.513621 477.323308 304.281255 
Q 482.51222 304.04889 491.53674 304.04889 
Q 495.013461 304.04889 498.198586 304.080494 
Q 501.391187 304.11174 504.217425 304.173512 
L 504.217425 304.520085 
Q 501.301465 304.440715 498.415413 304.401568 
Q 495.529361 304.362062 492.628356 304.362062 
Q 487.26 304.362062 484.351517 304.506438 
Q 481.443035 304.650454 481.443035 304.918734 
Q 481.443035 305.184499 484.246842 305.329593 
Q 487.050649 305.474328 492.209654 305.474328 
Q 493.615296 305.474328 494.819064 305.466067 
Q 496.022831 305.457448 496.979864 305.439491 
L 496.979864 305.114107 
L 491.484402 305.114107 
L 491.484402 304.824279 
L 505.503438 304.824279 
L 505.503438 305.630195 
z
" clip-path="url(#pb2a2fc6c6d)" style="fill: #ffa600"/>
   </g>
   <g id="patch_105">
    <path d="M 505.503438 303.758104 
Q 502.7128 303.90224 499.695213 303.975146 
Q 496.677627 304.04889 493.391063 304.04889 
Q 483.59021 304.04889 477.866041 303.502514 
Q 472.141872 302.956138 472.141872 302.021768 
Q 472.141872 301.084047 477.866041 300.538509 
Q 483.59021 299.992133 493.391063 299.992133 
Q 496.677627 299.992133 499.695213 300.065877 
Q 502.7128 300.138783 505.503438 300.282919 
L 505.503438 301.091589 
Q 502.687584 300.900525 499.955785 300.811697 
Q 497.223986 300.722869 494.2064 300.722869 
Q 488.793236 300.722869 485.691593 301.068963 
Q 482.598357 301.414219 482.598357 302.021768 
Q 482.598357 302.626804 485.691593 302.972898 
Q 488.793236 303.318154 494.2064 303.318154 
Q 497.223986 303.318154 499.955785 303.229326 
Q 502.687584 303.13966 505.503438 302.948596 
L 505.503438 303.758104 
z
" clip-path="url(#pb2a2fc6c6d)" style="fill: #0000ff"/>
   </g>
   <g id="patch_106">
    <path d="M 495.251458 298.72525 
L 482.421136 298.72525 
L 480.395296 299.992133 
L 472.141872 299.992133 
L 483.928579 293.037693 
L 493.71673 293.037693 
L 505.503438 299.992133 
L 497.256835 299.992133 
L 495.251458 298.72525 
z
M 484.467439 297.434521 
L 493.184692 297.434521 
L 488.832886 294.668245 
L 484.467439 297.434521 
z
" clip-path="url(#pb2a2fc6c6d)" style="fill: #008000"/>
   </g>
   <g id="patch_107">
    <path d="M 472.141872 234.504486 
L 505.503438 234.504486 
L 505.503438 245.920092 
L 493.501033 245.920092 
L 493.501033 293.037693 
L 484.167553 293.037693 
L 484.167553 245.920092 
L 472.141872 245.920092 
L 472.141872 234.504486 
z
" clip-path="url(#pb2a2fc6c6d)" style="fill: #ff0000"/>
   </g>
   <g id="matplotlib.axis_7">
    <g id="xtick_19">
     <g id="line2d_37">
      <g>
       <use xlink:href="#m400b9e3d0b" x="313.23547" y="305.7875" style="stroke: #000000; stroke-width: 0.8"/>
      </g>
     </g>
     <g id="text_42">
      <text style="font-size: 8px; font-family: 'Arial'; text-anchor: middle" x="313.23547" y="318.51375" transform="rotate(-0 313.23547 318.51375)">1</text>
     </g>
    </g>
    <g id="xtick_20">
     <g id="line2d_38">
      <g>
       <use xlink:href="#m400b9e3d0b" x="348.352907" y="305.7875" style="stroke: #000000; stroke-width: 0.8"/>
      </g>
     </g>
     <g id="text_43">
      <text style="font-size: 8px; font-family: 'Arial'; text-anchor: middle" x="348.352907" y="318.51375" transform="rotate(-0 348.352907 318.51375)">2</text>
     </g>
    </g>
    <g id="xtick_21">
     <g id="line2d_39">
      <g>
       <use xlink:href="#m400b9e3d0b" x="383.470344" y="305.7875" style="stroke: #000000; stroke-width: 0.8"/>
      </g>
     </g>
     <g id="text_44">
      <text style="font-size: 8px; font-family: 'Arial'; text-anchor: middle" x="383.470344" y="318.51375" transform="rotate(-0 383.470344 318.51375)">3</text>
     </g>
    </g>
    <g id="xtick_22">
     <g id="line2d_40">
      <g>
       <use xlink:href="#m400b9e3d0b" x="418.587781" y="305.7875" style="stroke: #000000; stroke-width: 0.8"/>
      </g>
     </g>
     <g id="text_45">
      <text style="font-size: 8px; font-family: 'Arial'; text-anchor: middle" x="418.587781" y="318.51375" transform="rotate(-0 418.587781 318.51375)">4</text>
     </g>
    </g>
    <g id="xtick_23">
     <g id="line2d_41">
      <g>
       <use xlink:href="#m400b9e3d0b" x="453.705218" y="305.7875" style="stroke: #000000; stroke-width: 0.8"/>
      </g>
     </g>
     <g id="text_46">
      <text style="font-size: 8px; font-family: 'Arial'; text-anchor: middle" x="453.705218" y="318.51375" transform="rotate(-0 453.705218 318.51375)">5</text>
     </g>
    </g>
    <g id="xtick_24">
     <g id="line2d_42">
      <g>
       <use xlink:href="#m400b9e3d0b" x="488.822655" y="305.7875" style="stroke: #000000; stroke-width: 0.8"/>
      </g>
     </g>
     <g id="text_47">
      <text style="font-size: 8px; font-family: 'Arial'; text-anchor: middle" x="488.822655" y="318.51375" transform="rotate(-0 488.822655 318.51375)">6</text>
     </g>
    </g>
    <g id="text_48">
     <text style="font-size: 9px; font-family: 'Arial'; text-anchor: middle" x="401.029062" y="330.545781" transform="rotate(-0 401.029062 330.545781)">Position</text>
    </g>
   </g>
   <g id="matplotlib.axis_8">
    <g id="ytick_15">
     <g id="line2d_43">
      <g>
       <use xlink:href="#m96ecd90eab" x="296.554687" y="305.7875" style="stroke: #000000; stroke-width: 0.8"/>
      </g>
     </g>
     <g id="text_49">
      <text style="font-size: 8px; font-family: 'Arial'; text-anchor: end" x="289.554687" y="308.650625" transform="rotate(-0 289.554687 308.650625)">0.0</text>
     </g>
    </g>
    <g id="ytick_16">
     <g id="line2d_44">
      <g>
       <use xlink:href="#m96ecd90eab" x="296.554687" y="272.570056" style="stroke: #000000; stroke-width: 0.8"/>
      </g>
     </g>
     <g id="text_50">
      <text style="font-size: 8px; font-family: 'Arial'; text-anchor: end" x="289.554687" y="275.433181" transform="rotate(-0 289.554687 275.433181)">0.5</text>
     </g>
    </g>
    <g id="ytick_17">
     <g id="line2d_45">
      <g>
       <use xlink:href="#m96ecd90eab" x="296.554687" y="239.352611" style="stroke: #000000; stroke-width: 0.8"/>
      </g>
     </g>
     <g id="text_51">
      <text style="font-size: 8px; font-family: 'Arial'; text-anchor: end" x="289.554687" y="242.215736" transform="rotate(-0 289.554687 242.215736)">1.0</text>
     </g>
    </g>
    <g id="ytick_18">
     <g id="line2d_46">
      <g>
       <use xlink:href="#m96ecd90eab" x="296.554687" y="206.135167" style="stroke: #000000; stroke-width: 0.8"/>
      </g>
     </g>
     <g id="text_52">
      <text style="font-size: 8px; font-family: 'Arial'; text-anchor: end" x="289.554687" y="208.998292" transform="rotate(-0 289.554687 208.998292)">1.5</text>
     </g>
    </g>
    <g id="text_53">
     <text style="font-size: 9px; font-family: 'Arial'; text-anchor: middle" x="272.540469" y="251.0575" transform="rotate(-90 272.540469 251.0575)">Information (bits)</text>
    </g>
   </g>
   <g id="patch_108">
    <path d="M 296.554687 305.7875 
L 296.554687 196.3275 
" style="fill: none; stroke: #000000; stroke-width: 0.8; stroke-linejoin: miter; stroke-linecap: square"/>
   </g>
   <g id="patch_109">
    <path d="M 296.554687 305.7875 
L 505.503438 305.7875 
" style="fill: none; stroke: #000000; stroke-width: 0.8; stroke-linejoin: miter; stroke-linecap: square"/>
   </g>
   <g id="text_54">
    <text style="font-size: 10px; font-family: 'Arial'; text-anchor: middle" x="401.029062" y="182.3275" transform="rotate(-0 401.029062 182.3275)">Predicted passed -10</text>
   </g>
  </g>
 </g>
 <defs>
  <clipPath id="pc327715f2d">
   <rect x="42.214688" y="28.3875" width="208.94875" height="109.46"/>
  </clipPath>
  <clipPath id="p058bb4cc5d">
   <rect x="296.554687" y="28.3875" width="208.94875" height="109.46"/>
  </clipPath>
  <clipPath id="p15e5f6c30d">
   <rect x="42.214688" y="196.3275" width="208.94875" height="109.46"/>
  </clipPath>
  <clipPath id="pb2a2fc6c6d">
   <rect x="296.554687" y="196.3275" width="208.94875" height="109.46"/>
  </clipPath>
 </defs>
</svg>
